<svg width="16" height="17" viewBox="0 0 16 17" fill="none" xmlns="http://www.w3.org/2000/svg">
<g clip-path="url(#clip0_1469_140565)">
<rect y="0.5" width="16" height="16" rx="8" fill="#F4F4F4"/>
<path d="M16 14.4947V16.4994H0V14.502C0.930633 13.2583 2.1386 12.2489 3.52786 11.5541C4.91711 10.8592 6.44933 10.4981 8.00267 10.4994C11.272 10.4994 14.176 12.0687 16 14.4947ZM10.668 6.4987C10.668 7.20594 10.387 7.88422 9.88695 8.38432C9.38686 8.88441 8.70858 9.16536 8.00133 9.16536C7.29409 9.16536 6.61581 8.88441 6.11572 8.38432C5.61562 7.88422 5.33467 7.20594 5.33467 6.4987C5.33467 5.79145 5.61562 5.11318 6.11572 4.61308C6.61581 4.11298 7.29409 3.83203 8.00133 3.83203C8.70858 3.83203 9.38686 4.11298 9.88695 4.61308C10.387 5.11318 10.668 5.79145 10.668 6.4987Z" fill="#D3D3D3"/>
</g>
<defs>
<clipPath id="clip0_1469_140565">
<rect y="0.5" width="16" height="16" rx="8" fill="white"/>
</clipPath>
</defs>
</svg>
