<svg width="594" height="594" viewBox="0 0 594 594" fill="none" xmlns="http://www.w3.org/2000/svg">
<path d="M565.238 329.129C549.207 377.718 514.67 430.97 463.847 448.306C387.053 474.506 380.192 537.488 240.816 537.057C219.085 536.992 198.914 534.717 180.304 530.559C170.3 528.326 160.744 525.534 151.65 522.242C69.0849 492.459 23.8791 421.629 17.4283 345.942C8.92812 246.394 76.6726 196.172 120.819 166.592C164.965 137.012 215.302 27.0586 352.321 26.4052C373.212 26.3149 394.137 28.3618 414.518 33.0497C461.044 43.731 508.915 69.4856 537.671 108.728C539.83 111.676 541.897 114.699 543.885 117.783C582.67 178.132 587.098 262.887 565.238 329.129Z" fill="#F8B09B"/>
<path opacity="0.7" d="M565.238 329.129C549.207 377.718 514.67 430.97 463.847 448.306C387.053 474.506 380.192 537.488 240.816 537.057C219.085 536.992 198.914 534.717 180.304 530.559C170.3 528.326 160.744 525.534 151.65 522.242C69.0849 492.459 23.8791 421.629 17.4283 345.942C8.92812 246.394 76.6726 196.172 120.819 166.592C164.965 137.012 215.302 27.0586 352.321 26.4052C373.212 26.3149 394.137 28.3618 414.518 33.0497C461.044 43.731 508.915 69.4856 537.671 108.728C539.83 111.676 541.897 114.699 543.885 117.783C582.67 178.132 587.098 262.887 565.238 329.129Z" fill="white"/>
<path d="M571.77 547.315H18.8945" stroke="#2F243A" stroke-miterlimit="10"/>
<path d="M42.6172 502.783C42.6172 502.783 60.0749 197.498 584.251 169.745" stroke="#2F243A" stroke-miterlimit="10" stroke-linecap="round" stroke-linejoin="round" stroke-dasharray="5 5"/>
<path d="M522.48 149.153C542.432 165.425 552.907 190.807 558.162 215.418C569.066 266.484 563.96 321.469 538.633 367.637C511.895 416.381 464.674 451.49 413.946 472.351C306.407 516.574 169.517 487.579 108.451 382.646C107.789 381.505 107.135 380.358 106.49 379.208C100.571 368.624 95.1038 357.197 92.7539 345.216" stroke="#2F243A" stroke-miterlimit="10" stroke-linecap="round" stroke-linejoin="round" stroke-dasharray="5 5"/>
<path d="M349.736 373.953H44.1172C39.2048 373.953 35.2227 369.971 35.2227 365.059V62.1328C35.2227 57.2205 39.2048 53.2383 44.1172 53.2383H349.736C354.649 53.2383 358.631 57.2205 358.631 62.1328V365.059C358.63 369.971 354.649 373.953 349.736 373.953Z" fill="#2F243A"/>
<path d="M357.528 366.486H51.9102C46.9978 366.486 43.0156 362.504 43.0156 357.592V54.666C43.0156 49.7537 46.9978 45.7715 51.9102 45.7715H357.529C362.441 45.7715 366.424 49.7537 366.424 54.666V357.592C366.422 362.504 362.44 366.486 357.528 366.486Z" fill="#F8B09B" stroke="#2F243A" stroke-miterlimit="10"/>
<path d="M285.484 270.802H124.158C116.091 270.802 109.551 264.262 109.551 256.194V250.681C109.551 242.613 116.091 236.073 124.158 236.073H285.484C293.552 236.073 300.092 242.613 300.092 250.681V256.194C300.092 264.262 293.552 270.802 285.484 270.802Z" fill="white" stroke="#2F243A" stroke-miterlimit="10"/>
<path d="M285.484 201.009H124.158C116.091 201.009 109.551 194.469 109.551 186.401V180.888C109.551 172.82 116.091 166.28 124.158 166.28H285.484C293.552 166.28 300.092 172.82 300.092 180.888V186.401C300.092 194.469 293.552 201.009 285.484 201.009Z" fill="white" stroke="#2F243A" stroke-miterlimit="10"/>
<path d="M254.949 326.892H154.697C146.63 326.892 140.09 320.352 140.09 312.284V306.771C140.09 298.703 146.63 292.163 154.697 292.163H254.949C263.017 292.163 269.557 298.703 269.557 306.771V312.284C269.558 320.352 263.017 326.892 254.949 326.892Z" fill="#2F243A"/>
<path d="M366.422 71.3527V55.9265C366.422 50.318 361.876 45.7715 356.267 45.7715H53.1706C47.5621 45.7715 43.0156 50.318 43.0156 55.9265V71.3515L366.422 71.3527Z" fill="#2F243A" stroke="#2F243A" stroke-miterlimit="10"/>
<path d="M319.57 64.8516C322.161 64.8516 324.262 62.7512 324.262 60.1602C324.262 57.5692 322.161 55.4688 319.57 55.4688C316.979 55.4688 314.879 57.5692 314.879 60.1602C314.879 62.7512 316.979 64.8516 319.57 64.8516Z" fill="white" stroke="#2F243A" stroke-miterlimit="10"/>
<path d="M335.402 64.8516C337.993 64.8516 340.094 62.7512 340.094 60.1602C340.094 57.5692 337.993 55.4688 335.402 55.4688C332.811 55.4688 330.711 57.5692 330.711 60.1602C330.711 62.7512 332.811 64.8516 335.402 64.8516Z" fill="white" stroke="#2F243A" stroke-miterlimit="10"/>
<path d="M355.93 60.1602C355.93 57.5691 353.829 55.4688 351.238 55.4688C348.647 55.4688 346.547 57.5691 346.547 60.1602C346.547 62.7512 348.647 64.8516 351.238 64.8516C353.829 64.8516 355.93 62.7512 355.93 60.1602Z" fill="white" stroke="#2F243A" stroke-miterlimit="10"/>
<path d="M470.424 78.3174C470.424 90.8401 464.565 102.008 455.405 109.179C448.742 114.447 440.302 117.577 431.164 117.577C422.005 117.577 413.565 114.447 406.902 109.179C397.742 102.008 391.883 90.8401 391.883 78.3174C391.883 56.615 409.46 39.0361 431.164 39.0361C452.846 39.0361 470.424 56.6138 470.424 78.3174Z" fill="#2F243A" stroke="#2F243A" stroke-miterlimit="10"/>
<path d="M447.558 72.1626C447.558 63.1065 440.216 55.7646 431.16 55.7646C422.104 55.7646 414.762 63.1065 414.762 72.1626C414.762 81.2187 422.104 88.5606 431.16 88.5606C440.216 88.5606 447.558 81.2187 447.558 72.1626Z" fill="white" stroke="#2F243A" stroke-miterlimit="10"/>
<path d="M455.406 109.179C448.743 114.447 440.303 117.577 431.165 117.577C422.005 117.577 413.566 114.447 406.902 109.179C409.335 98.0322 419.277 89.6758 431.165 89.6758C443.032 89.6758 452.974 98.031 455.406 109.179Z" fill="white" stroke="#2F243A" stroke-miterlimit="10"/>
<path d="M481.211 108.435L528.407 118.211L515.715 132.74L481.211 108.435Z" fill="white" stroke="#2F243A" stroke-miterlimit="10"/>
<path d="M481.211 108.435L497.046 152.841L511.001 137.296L481.211 108.435Z" fill="white" stroke="#2F243A" stroke-miterlimit="10"/>
<path d="M515.715 132.74L514.64 143.917L511.001 137.296L481.211 108.435L515.715 132.74Z" fill="white" stroke="#2F243A" stroke-miterlimit="10"/>
<path d="M514.638 143.917L508.5 140.431L511 137.296L514.638 143.917Z" fill="white" stroke="#2F243A" stroke-miterlimit="10"/>
<path d="M407.052 408.059V293.825C407.052 266.125 429.587 243.589 457.289 243.589C484.988 243.589 507.524 266.124 507.524 293.825V408.059H528.26V293.825C528.26 254.691 496.423 222.854 457.289 222.854H457.288C418.155 222.854 386.316 254.691 386.316 293.825V408.059H407.052Z" fill="#2F243A"/>
<path d="M545.146 358.358H375.984V547.316H545.146V358.358Z" fill="#B2B2B2"/>
<path d="M545.146 374.432L375.984 543.593V547.315H392.898L545.146 395.067V374.432Z" fill="white"/>
<path d="M375.984 405.416V467.17L484.794 358.358H423.041L375.984 405.416Z" fill="white"/>
<path d="M545.146 358.358H375.984V547.316H545.146V358.358Z" stroke="#2F243A" stroke-miterlimit="10"/>
<path d="M545.147 358.358H509.543V547.316H545.147V358.358Z" fill="#2F243A" stroke="#2F243A" stroke-miterlimit="10"/>
<path d="M447.365 433.127C447.365 426.579 442.057 421.271 435.509 421.271C428.96 421.271 423.652 426.579 423.652 433.127C423.652 438.03 426.628 442.236 430.873 444.042L428.697 469.787H442.322L440.145 444.042C444.389 442.236 447.365 438.03 447.365 433.127Z" fill="#2F243A" stroke="#2F243A" stroke-miterlimit="10"/>
<path d="M128.101 256.961L126.54 256.019L128.498 253.268L125.574 252.154L126.218 250.469L129.018 251.956L128.721 248.536H130.729L130.407 251.956L133.232 250.469L133.852 252.154L130.929 253.293L132.911 256.019L131.3 256.961L129.714 253.864L128.101 256.961Z" fill="#2F243A"/>
<path d="M137.964 256.961L136.403 256.019L138.361 253.268L135.438 252.154L136.081 250.469L138.882 251.956L138.585 248.536H140.592L140.27 251.956L143.095 250.469L143.715 252.154L140.792 253.293L142.775 256.019L141.164 256.961L139.578 253.864L137.964 256.961Z" fill="#2F243A"/>
<path d="M147.824 256.961L146.263 256.019L148.221 253.268L145.297 252.154L145.941 250.469L148.741 251.956L148.444 248.536H150.452L150.13 251.956L152.955 250.469L153.574 252.154L150.65 253.293L152.633 256.019L151.022 256.961L149.436 253.864L147.824 256.961Z" fill="#2F243A"/>
<path d="M157.687 256.961L156.126 256.019L158.084 253.268L155.16 252.154L155.804 250.469L158.604 251.956L158.307 248.536H160.315L159.993 251.956L162.818 250.469L163.437 252.154L160.513 253.293L162.496 256.019L160.885 256.961L159.299 253.864L157.687 256.961Z" fill="#2F243A"/>
<path d="M167.55 256.961L165.989 256.019L167.947 253.268L165.023 252.154L165.667 250.469L168.467 251.956L168.17 248.536H170.178L169.856 251.956L172.681 250.469L173.3 252.154L170.377 253.293L172.359 256.019L170.748 256.961L169.162 253.864L167.55 256.961Z" fill="#2F243A"/>
<path d="M177.414 256.961L175.853 256.019L177.81 253.268L174.887 252.154L175.531 250.469L178.331 251.956L178.034 248.536H180.041L179.72 251.956L182.545 250.469L183.164 252.154L180.24 253.293L182.223 256.019L180.612 256.961L179.026 253.864L177.414 256.961Z" fill="#2F243A"/>
<path d="M187.273 256.961L185.712 256.019L187.67 253.268L184.746 252.154L185.39 250.469L188.19 251.956L187.893 248.536H189.901L189.579 251.956L192.404 250.469L193.023 252.154L190.099 253.293L192.082 256.019L190.471 256.961L188.885 253.864L187.273 256.961Z" fill="#2F243A"/>
<path d="M197.136 256.961L195.575 256.019L197.533 253.268L194.609 252.154L195.253 250.469L198.053 251.956L197.756 248.536H199.764L199.442 251.956L202.267 250.469L202.886 252.154L199.963 253.293L201.945 256.019L200.334 256.961L198.748 253.864L197.136 256.961Z" fill="#2F243A"/>
<path d="M207 256.961L205.438 256.019L207.396 253.268L204.473 252.154L205.117 250.469L207.917 251.956L207.62 248.536H209.627L209.305 251.956L212.131 250.469L212.751 252.154L209.827 253.293L211.81 256.019L210.199 256.961L208.613 253.864L207 256.961Z" fill="#2F243A"/>
<path d="M216.863 256.961L215.302 256.019L217.26 253.268L214.336 252.154L214.98 250.469L217.78 251.956L217.483 248.536H219.491L219.169 251.956L221.994 250.469L222.613 252.154L219.689 253.293L221.672 256.019L220.062 256.961L218.476 253.864L216.863 256.961Z" fill="#2F243A"/>
<path d="M226.722 256.961L225.161 256.019L227.119 253.268L224.195 252.154L224.839 250.469L227.639 251.956L227.342 248.536H229.35L229.028 251.956L231.853 250.469L232.472 252.154L229.548 253.293L231.531 256.019L229.92 256.961L228.334 253.864L226.722 256.961Z" fill="#2F243A"/>
<path d="M236.585 256.961L235.024 256.019L236.982 253.268L234.059 252.154L234.704 250.469L237.504 251.956L237.207 248.536H239.215L238.893 251.956L241.718 250.469L242.338 252.154L239.414 253.293L241.397 256.019L239.787 256.961L238.201 253.864L236.585 256.961Z" fill="#2F243A"/>
<path d="M246.449 256.961L244.888 256.019L246.846 253.268L243.922 252.154L244.566 250.469L247.366 251.956L247.069 248.536H249.077L248.755 251.956L251.58 250.469L252.199 252.154L249.275 253.293L251.258 256.019L249.648 256.961L248.062 253.864L246.449 256.961Z" fill="#2F243A"/>
<path d="M256.308 256.961L254.747 256.019L256.705 253.268L253.781 252.154L254.425 250.469L257.225 251.956L256.928 248.536H258.936L258.614 251.956L261.439 250.469L262.058 252.154L259.134 253.293L261.117 256.019L259.506 256.961L257.92 253.864L256.308 256.961Z" fill="#2F243A"/>
<path d="M266.171 256.961L264.61 256.019L266.568 253.268L263.645 252.154L264.288 250.469L267.089 251.956L266.792 248.536H268.799L268.477 251.956L271.302 250.469L271.921 252.154L268.998 253.293L270.98 256.019L269.37 256.961L267.784 253.864L266.171 256.961Z" fill="#2F243A"/>
<path d="M276.035 256.961L274.474 256.019L276.431 253.268L273.508 252.154L274.152 250.469L276.952 251.956L276.655 248.536H278.663L278.341 251.956L281.166 250.469L281.785 252.154L278.861 253.293L280.844 256.019L279.233 256.961L277.647 253.864L276.035 256.961Z" fill="#2F243A"/>
<path d="M128.101 187.167L126.54 186.225L128.498 183.475L125.574 182.36L126.218 180.675L129.018 182.162L128.721 178.742H130.729L130.407 182.162L133.232 180.675L133.852 182.36L130.929 183.5L132.911 186.227L131.3 187.169L129.714 184.072L128.101 187.167Z" fill="#2F243A"/>
<path d="M137.964 187.167L136.403 186.225L138.361 183.475L135.438 182.36L136.081 180.675L138.882 182.162L138.585 178.742H140.592L140.27 182.162L143.095 180.675L143.715 182.36L140.792 183.5L142.775 186.227L141.164 187.169L139.578 184.072L137.964 187.167Z" fill="#2F243A"/>
<path d="M147.824 187.167L146.263 186.225L148.221 183.475L145.297 182.36L145.941 180.675L148.741 182.162L148.444 178.742H150.452L150.13 182.162L152.955 180.675L153.574 182.36L150.65 183.5L152.633 186.227L151.022 187.169L149.436 184.072L147.824 187.167Z" fill="#2F243A"/>
<path d="M157.687 187.167L156.126 186.225L158.084 183.475L155.16 182.36L155.804 180.675L158.604 182.162L158.307 178.742H160.315L159.993 182.162L162.818 180.675L163.437 182.36L160.513 183.5L162.496 186.227L160.885 187.169L159.299 184.072L157.687 187.167Z" fill="#2F243A"/>
<path d="M167.55 187.167L165.989 186.225L167.947 183.475L165.023 182.36L165.667 180.675L168.467 182.162L168.17 178.742H170.178L169.856 182.162L172.681 180.675L173.3 182.36L170.377 183.5L172.359 186.227L170.748 187.169L169.162 184.072L167.55 187.167Z" fill="#2F243A"/>
<path d="M177.414 187.167L175.853 186.225L177.81 183.475L174.887 182.36L175.531 180.675L178.331 182.162L178.034 178.742H180.041L179.72 182.162L182.545 180.675L183.164 182.36L180.24 183.5L182.223 186.227L180.612 187.169L179.026 184.072L177.414 187.167Z" fill="#2F243A"/>
<path d="M187.273 187.167L185.712 186.225L187.67 183.475L184.746 182.36L185.39 180.675L188.19 182.162L187.893 178.742H189.901L189.579 182.162L192.404 180.675L193.023 182.36L190.099 183.5L192.082 186.227L190.471 187.169L188.885 184.072L187.273 187.167Z" fill="#2F243A"/>
<path d="M197.136 187.167L195.575 186.225L197.533 183.475L194.609 182.36L195.253 180.675L198.053 182.162L197.756 178.742H199.764L199.442 182.162L202.267 180.675L202.886 182.36L199.963 183.5L201.945 186.227L200.334 187.169L198.748 184.072L197.136 187.167Z" fill="#2F243A"/>
<path d="M207 187.167L205.438 186.225L207.396 183.475L204.473 182.36L205.117 180.675L207.917 182.162L207.62 178.742H209.627L209.305 182.162L212.131 180.675L212.751 182.36L209.827 183.5L211.81 186.227L210.199 187.169L208.613 184.072L207 187.167Z" fill="#2F243A"/>
<path d="M216.863 187.167L215.302 186.225L217.26 183.475L214.336 182.36L214.98 180.675L217.78 182.162L217.483 178.742H219.491L219.169 182.162L221.994 180.675L222.613 182.36L219.689 183.5L221.672 186.227L220.062 187.169L218.476 184.072L216.863 187.167Z" fill="#2F243A"/>
<path d="M226.722 187.167L225.161 186.225L227.119 183.475L224.195 182.36L224.839 180.675L227.639 182.162L227.342 178.742H229.35L229.028 182.162L231.853 180.675L232.472 182.36L229.548 183.5L231.531 186.227L229.92 187.169L228.334 184.072L226.722 187.167Z" fill="#2F243A"/>
<path d="M236.585 187.167L235.024 186.225L236.982 183.475L234.059 182.36L234.704 180.675L237.504 182.162L237.207 178.742H239.215L238.893 182.162L241.718 180.675L242.338 182.36L239.414 183.5L241.397 186.227L239.787 187.169L238.201 184.072L236.585 187.167Z" fill="#2F243A"/>
<path d="M246.449 187.167L244.888 186.225L246.846 183.475L243.922 182.36L244.566 180.675L247.366 182.162L247.069 178.742H249.077L248.755 182.162L251.58 180.675L252.199 182.36L249.275 183.5L251.258 186.227L249.648 187.169L248.062 184.072L246.449 187.167Z" fill="#2F243A"/>
<path d="M256.308 187.167L254.747 186.225L256.705 183.475L253.781 182.36L254.425 180.675L257.225 182.162L256.928 178.742H258.936L258.614 182.162L261.439 180.675L262.058 182.36L259.134 183.5L261.117 186.227L259.506 187.169L257.92 184.072L256.308 187.167Z" fill="#2F243A"/>
<path d="M266.171 187.167L264.61 186.225L266.568 183.475L263.645 182.36L264.288 180.675L267.089 182.162L266.792 178.742H268.799L268.477 182.162L271.302 180.675L271.921 182.36L268.998 183.5L270.98 186.227L269.37 187.169L267.784 184.072L266.171 187.167Z" fill="#2F243A"/>
<path d="M276.035 187.167L274.474 186.225L276.431 183.475L273.508 182.36L274.152 180.675L276.952 182.162L276.655 178.742H278.663L278.341 182.162L281.166 180.675L281.785 182.36L278.861 183.5L280.844 186.227L279.233 187.169L277.647 184.072L276.035 187.167Z" fill="#2F243A"/>
<path d="M177.438 156.851V146.556H179.992C180.611 146.556 181.104 146.669 181.473 146.893C181.841 147.118 182.11 147.442 182.28 147.865C182.45 148.288 182.534 148.801 182.534 149.402C182.534 149.944 182.439 150.414 182.248 150.813C182.058 151.211 181.775 151.519 181.403 151.734C181.03 151.95 180.564 152.058 180.005 152.058H178.874V156.85L177.438 156.851ZM178.873 151.03H179.533C179.949 151.03 180.274 150.983 180.512 150.889C180.75 150.796 180.918 150.633 181.021 150.4C181.121 150.167 181.173 149.839 181.173 149.415C181.173 148.923 181.136 148.547 181.064 148.284C180.992 148.022 180.842 147.839 180.613 147.738C180.384 147.636 180.029 147.584 179.545 147.584H178.87V151.03H178.873Z" fill="#2F243A"/>
<path d="M182.496 156.851L184.682 146.556H186.067L188.266 156.851H186.906L186.436 154.257H184.337L183.842 156.851H182.496ZM184.529 153.229H186.244L185.381 148.59L184.529 153.229Z" fill="#2F243A"/>
<path d="M191.736 156.965C191.143 156.965 190.65 156.838 190.256 156.584C189.862 156.33 189.563 155.978 189.36 155.529C189.157 155.08 189.038 154.558 189.004 153.965L190.275 153.622C190.301 153.987 190.358 154.338 190.446 154.676C190.535 155.014 190.683 155.292 190.886 155.509C191.089 155.725 191.373 155.833 191.736 155.833C192.109 155.833 192.391 155.728 192.581 155.522C192.772 155.314 192.867 155.016 192.867 154.626C192.867 154.16 192.762 153.785 192.549 153.501C192.337 153.217 192.07 152.932 191.748 152.643L190.021 151.118C189.682 150.822 189.432 150.498 189.27 150.146C189.11 149.794 189.029 149.361 189.029 148.843C189.029 148.09 189.245 147.504 189.676 147.089C190.109 146.674 190.698 146.467 191.443 146.467C191.849 146.467 192.207 146.52 192.517 146.626C192.826 146.732 193.085 146.894 193.293 147.114C193.499 147.335 193.666 147.612 193.789 147.947C193.912 148.282 193.995 148.674 194.036 149.123L192.816 149.453C192.791 149.115 192.74 148.804 192.664 148.52C192.588 148.236 192.455 148.008 192.264 147.833C192.073 147.66 191.799 147.572 191.444 147.572C191.089 147.572 190.811 147.667 190.611 147.858C190.412 148.049 190.313 148.33 190.313 148.703C190.313 149.016 190.367 149.275 190.472 149.478C190.578 149.682 190.75 149.889 190.987 150.101L192.728 151.626C193.118 151.965 193.461 152.37 193.758 152.84C194.054 153.311 194.203 153.868 194.203 154.512C194.203 155.02 194.097 155.459 193.884 155.827C193.673 156.197 193.382 156.477 193.015 156.672C192.645 156.868 192.22 156.965 191.736 156.965Z" fill="#2F243A"/>
<path d="M197.748 156.965C197.155 156.965 196.662 156.838 196.268 156.584C195.873 156.33 195.575 155.978 195.372 155.529C195.169 155.08 195.05 154.558 195.016 153.965L196.287 153.622C196.313 153.987 196.37 154.338 196.458 154.676C196.547 155.014 196.694 155.292 196.897 155.509C197.101 155.725 197.385 155.833 197.748 155.833C198.121 155.833 198.403 155.728 198.593 155.522C198.784 155.314 198.879 155.016 198.879 154.626C198.879 154.16 198.773 153.785 198.561 153.501C198.349 153.217 198.083 152.932 197.76 152.643L196.033 151.118C195.694 150.822 195.443 150.498 195.282 150.146C195.12 149.794 195.041 149.361 195.041 148.843C195.041 148.09 195.257 147.504 195.688 147.089C196.12 146.674 196.71 146.467 197.455 146.467C197.861 146.467 198.218 146.52 198.529 146.626C198.837 146.732 199.096 146.894 199.304 147.114C199.511 147.335 199.677 147.612 199.801 147.947C199.923 148.282 200.006 148.674 200.048 149.123L198.828 149.453C198.803 149.115 198.752 148.804 198.676 148.52C198.6 148.236 198.467 148.008 198.276 147.833C198.084 147.66 197.811 147.572 197.456 147.572C197.101 147.572 196.821 147.667 196.623 147.858C196.423 148.049 196.325 148.33 196.325 148.703C196.325 149.016 196.378 149.275 196.484 149.478C196.59 149.682 196.762 149.889 196.998 150.101L198.74 151.626C199.13 151.965 199.473 152.37 199.77 152.84C200.066 153.311 200.214 153.868 200.214 154.512C200.214 155.02 200.109 155.459 199.896 155.827C199.684 156.197 199.393 156.477 199.025 156.672C198.657 156.868 198.232 156.965 197.748 156.965Z" fill="#2F243A"/>
<path d="M202.666 156.851L200.988 146.556H202.183L203.288 153.953L204.673 146.595H205.69L207.089 153.991L208.169 146.557H209.339L207.686 156.852H206.643L205.207 149.226L203.758 156.852H202.666V156.851Z" fill="#2F243A"/>
<path d="M213.123 156.965C212.428 156.965 211.874 156.83 211.458 156.559C211.042 156.287 210.746 155.9 210.568 155.396C210.39 154.892 210.301 154.3 210.301 153.623V149.721C210.301 149.044 210.391 148.461 210.574 147.973C210.756 147.486 211.052 147.113 211.464 146.854C211.875 146.596 212.427 146.467 213.122 146.467C213.817 146.467 214.368 146.597 214.775 146.861C215.181 147.124 215.476 147.497 215.659 147.979C215.84 148.463 215.932 149.042 215.932 149.721V153.635C215.932 154.305 215.842 154.889 215.659 155.389C215.476 155.889 215.182 156.276 214.775 156.552C214.37 156.827 213.818 156.965 213.123 156.965ZM213.123 155.834C213.505 155.834 213.793 155.756 213.987 155.599C214.182 155.442 214.314 155.222 214.382 154.938C214.449 154.654 214.484 154.322 214.484 153.941V149.428C214.484 149.047 214.449 148.719 214.382 148.444C214.314 148.168 214.182 147.957 213.987 147.808C213.792 147.661 213.505 147.586 213.123 147.586C212.742 147.586 212.452 147.661 212.253 147.808C212.053 147.957 211.92 148.168 211.852 148.444C211.785 148.719 211.751 149.047 211.751 149.428V153.941C211.751 154.322 211.785 154.654 211.852 154.938C211.92 155.222 212.053 155.442 212.253 155.599C212.452 155.756 212.742 155.834 213.123 155.834Z" fill="#2F243A"/>
<path d="M217.344 156.851V146.556H219.416C220.102 146.556 220.669 146.647 221.118 146.829C221.567 147.011 221.9 147.303 222.116 147.706C222.332 148.107 222.44 148.636 222.44 149.288C222.44 149.686 222.398 150.048 222.313 150.375C222.229 150.701 222.092 150.976 221.907 151.201C221.72 151.425 221.474 151.588 221.169 151.69L222.63 156.85H221.245L219.898 152.02H218.779V156.85L217.344 156.851ZM218.779 150.992H219.327C219.733 150.992 220.063 150.942 220.317 150.84C220.572 150.739 220.758 150.564 220.877 150.318C220.996 150.072 221.054 149.729 221.054 149.289C221.054 148.688 220.943 148.253 220.724 147.986C220.503 147.719 220.067 147.586 219.414 147.586H218.779V150.992Z" fill="#2F243A"/>
<path d="M223.941 156.851V146.556H226.178C226.941 146.556 227.545 146.672 227.99 146.905C228.436 147.138 228.753 147.487 228.943 147.953C229.133 148.418 229.229 148.999 229.229 149.694V153.482C229.229 154.21 229.134 154.824 228.943 155.324C228.752 155.824 228.443 156.203 228.015 156.462C227.587 156.72 227.014 156.85 226.294 156.85L223.941 156.851ZM225.377 155.821H226.19C226.715 155.821 227.088 155.719 227.308 155.516C227.529 155.312 227.662 155.015 227.709 154.626C227.755 154.236 227.779 153.766 227.779 153.216V149.873C227.779 149.339 227.745 148.907 227.678 148.576C227.61 148.246 227.461 148.005 227.232 147.852C227.004 147.7 226.643 147.624 226.152 147.624H225.377V155.821Z" fill="#2F243A"/>
<path d="M107.195 119.386V102.906H111.467C112.579 102.906 113.532 103.031 114.326 103.283C115.119 103.534 115.73 103.978 116.156 104.616C116.584 105.254 116.798 106.135 116.798 107.261C116.798 107.94 116.74 108.54 116.624 109.062C116.508 109.584 116.305 110.039 116.014 110.425C115.722 110.812 115.312 111.12 114.783 111.351L117.062 119.387H113.622L111.73 111.921H110.55V119.387L107.195 119.386ZM110.553 109.925H111.529C112.072 109.925 112.499 109.837 112.811 109.661C113.123 109.485 113.343 109.217 113.472 108.857C113.6 108.498 113.665 108.054 113.665 107.524C113.665 106.765 113.526 106.185 113.248 105.785C112.97 105.384 112.451 105.184 111.692 105.184H110.553V109.925Z" fill="#2F243A"/>
<path d="M118.996 119.386V102.906H126.178V105.225H122.353V109.599H125.303V111.939H122.353V117.106H126.219V119.385H118.996V119.386Z" fill="#2F243A"/>
<path d="M132.18 119.611C131.163 119.611 130.314 119.424 129.636 119.051C128.958 118.678 128.446 118.115 128.1 117.362C127.754 116.61 127.553 115.65 127.5 114.483L130.389 113.995C130.417 114.675 130.487 115.24 130.602 115.694C130.717 116.149 130.893 116.487 131.132 116.711C131.369 116.934 131.664 117.047 132.017 117.047C132.452 117.047 132.746 116.912 132.902 116.641C133.057 116.369 133.136 116.057 133.136 115.705C133.136 115.012 132.97 114.433 132.637 113.964C132.304 113.496 131.867 113.024 131.325 112.55L129.616 111.065C129.005 110.55 128.507 109.967 128.12 109.316C127.734 108.665 127.54 107.864 127.54 106.915C127.54 105.558 127.937 104.517 128.731 103.791C129.524 103.067 130.613 102.703 131.997 102.703C132.823 102.703 133.502 102.839 134.032 103.109C134.56 103.381 134.97 103.744 135.262 104.199C135.553 104.653 135.758 105.148 135.873 105.684C135.988 106.22 136.06 106.752 136.087 107.282L133.219 107.709C133.192 107.207 133.148 106.767 133.086 106.387C133.025 106.008 132.903 105.709 132.72 105.491C132.537 105.275 132.263 105.166 131.897 105.166C131.504 105.166 131.213 105.312 131.022 105.603C130.832 105.895 130.737 106.217 130.737 106.569C130.737 107.152 130.869 107.631 131.134 108.004C131.398 108.377 131.761 108.767 132.222 109.174L133.89 110.639C134.582 111.237 135.174 111.917 135.67 112.684C136.164 113.45 136.412 114.397 136.412 115.522C136.412 116.295 136.235 116.994 135.884 117.617C135.531 118.242 135.039 118.73 134.408 119.082C133.777 119.434 133.034 119.611 132.18 119.611Z" fill="#2F243A"/>
<path d="M137.918 119.386V102.906H145.099V105.225H141.275V109.599H144.225V111.939H141.275V117.106H145.141V119.385H137.918V119.386Z" fill="#2F243A"/>
<path d="M148.376 119.386V105.408H145.832V102.906H154.255V105.408H151.752V119.386H148.376Z" fill="#2F243A"/>
<path d="M162.984 119.386V112.855L159.77 102.905H162.924L164.694 108.704L166.342 102.905H169.394L166.219 112.855V119.386H162.984Z" fill="#2F243A"/>
<path d="M175.131 119.611C173.924 119.611 172.968 119.394 172.262 118.96C171.557 118.526 171.052 117.906 170.746 117.098C170.442 116.292 170.289 115.326 170.289 114.198V108.054C170.289 106.928 170.442 105.966 170.746 105.165C171.052 104.364 171.557 103.754 172.262 103.333C172.968 102.912 173.924 102.702 175.131 102.702C176.351 102.702 177.318 102.916 178.03 103.342C178.742 103.77 179.25 104.381 179.557 105.174C179.863 105.968 180.014 106.928 180.014 108.053V114.197C180.014 115.323 179.862 116.29 179.557 117.097C179.251 117.905 178.743 118.525 178.03 118.959C177.318 119.394 176.353 119.611 175.131 119.611ZM175.131 117.189C175.565 117.189 175.883 117.09 176.086 116.894C176.291 116.697 176.425 116.433 176.494 116.1C176.562 115.768 176.595 115.413 176.595 115.032V107.24C176.595 106.861 176.562 106.507 176.494 106.183C176.426 105.857 176.291 105.596 176.086 105.399C175.883 105.202 175.565 105.104 175.131 105.104C174.724 105.104 174.419 105.202 174.215 105.399C174.012 105.596 173.877 105.856 173.809 106.183C173.741 106.509 173.707 106.861 173.707 107.24V115.032C173.707 115.413 173.738 115.768 173.798 116.1C173.86 116.433 173.992 116.697 174.195 116.894C174.4 117.091 174.711 117.189 175.131 117.189Z" fill="#2F243A"/>
<path d="M186.89 119.611C185.642 119.611 184.672 119.397 183.98 118.969C183.289 118.543 182.803 117.925 182.526 117.118C182.248 116.31 182.109 115.332 182.109 114.178V102.906H185.425V114.646C185.425 115.054 185.456 115.454 185.517 115.847C185.578 116.24 185.714 116.559 185.924 116.803C186.134 117.047 186.456 117.169 186.89 117.169C187.338 117.169 187.666 117.047 187.877 116.803C188.087 116.559 188.219 116.24 188.274 115.847C188.329 115.454 188.356 115.054 188.356 114.646V102.906H191.672V114.178C191.672 115.33 191.533 116.31 191.255 117.118C190.977 117.925 190.492 118.543 189.799 118.969C189.108 119.396 188.137 119.611 186.89 119.611Z" fill="#2F243A"/>
<path d="M194.012 119.386V102.906H198.284C199.396 102.906 200.349 103.031 201.142 103.283C201.936 103.534 202.546 103.978 202.973 104.616C203.4 105.254 203.614 106.135 203.614 107.261C203.614 107.94 203.556 108.54 203.441 109.062C203.324 109.584 203.121 110.039 202.83 110.425C202.538 110.812 202.128 111.12 201.599 111.351L203.878 119.387H200.439L198.546 111.921H197.367V119.387L194.012 119.386ZM197.369 109.925H198.346C198.888 109.925 199.315 109.837 199.627 109.661C199.94 109.485 200.16 109.217 200.288 108.857C200.416 108.498 200.482 108.054 200.482 107.524C200.482 106.765 200.343 106.185 200.065 105.785C199.787 105.384 199.267 105.184 198.508 105.184H197.369V109.925Z" fill="#2F243A"/>
<path d="M210.898 119.386V102.906H216.127C217.118 102.906 217.924 103.093 218.548 103.466C219.172 103.839 219.636 104.378 219.941 105.083C220.247 105.788 220.399 106.643 220.399 107.646C220.399 108.826 220.199 109.749 219.799 110.413C219.399 111.079 218.852 111.55 218.161 111.828C217.469 112.106 216.676 112.245 215.78 112.245H214.255V119.387L210.898 119.386ZM214.256 109.885H215.435C215.924 109.885 216.3 109.806 216.565 109.651C216.83 109.495 217.01 109.247 217.105 108.908C217.2 108.569 217.247 108.135 217.247 107.606C217.247 107.105 217.209 106.684 217.135 106.344C217.061 106.006 216.894 105.741 216.636 105.551C216.379 105.361 215.971 105.266 215.416 105.266H214.257L214.256 109.885Z" fill="#2F243A"/>
<path d="M220.398 119.386L223.593 102.906H227.316L230.49 119.386H227.378L226.787 115.765H224.183L223.553 119.386H220.398ZM224.488 113.71H226.461L225.463 107.057L224.488 113.71Z" fill="#2F243A"/>
<path d="M236.308 119.611C235.292 119.611 234.443 119.424 233.765 119.051C233.087 118.678 232.575 118.115 232.229 117.362C231.883 116.61 231.682 115.65 231.629 114.483L234.518 113.995C234.545 114.675 234.617 115.24 234.732 115.694C234.847 116.149 235.023 116.487 235.261 116.711C235.498 116.934 235.793 117.047 236.146 117.047C236.58 117.047 236.875 116.912 237.031 116.641C237.186 116.369 237.265 116.057 237.265 115.705C237.265 115.012 237.098 114.433 236.766 113.964C236.433 113.496 235.996 113.024 235.454 112.55L233.745 111.065C233.134 110.55 232.636 109.967 232.249 109.316C231.863 108.665 231.669 107.864 231.669 106.915C231.669 105.558 232.066 104.517 232.86 103.791C233.653 103.067 234.741 102.703 236.125 102.703C236.952 102.703 237.631 102.839 238.161 103.109C238.689 103.381 239.099 103.744 239.391 104.199C239.682 104.653 239.887 105.148 240.002 105.684C240.117 106.22 240.188 106.752 240.215 107.282L237.347 107.709C237.319 107.207 237.275 106.767 237.214 106.387C237.153 106.008 237.031 105.709 236.848 105.491C236.665 105.275 236.39 105.166 236.023 105.166C235.63 105.166 235.339 105.312 235.149 105.603C234.959 105.895 234.864 106.217 234.864 106.569C234.864 107.152 234.996 107.631 235.261 108.004C235.524 108.377 235.888 108.767 236.35 109.174L238.018 110.639C238.709 111.237 239.302 111.917 239.799 112.684C240.294 113.45 240.541 114.397 240.541 115.522C240.541 116.295 240.364 116.994 240.013 117.617C239.66 118.242 239.168 118.73 238.537 119.082C237.906 119.434 237.164 119.611 236.308 119.611Z" fill="#2F243A"/>
<path d="M246.32 119.611C245.303 119.611 244.455 119.424 243.777 119.051C243.098 118.678 242.586 118.115 242.241 117.362C241.895 116.61 241.694 115.65 241.641 114.483L244.53 113.995C244.557 114.675 244.627 115.24 244.742 115.694C244.858 116.149 245.034 116.487 245.271 116.711C245.509 116.934 245.803 117.047 246.156 117.047C246.591 117.047 246.886 116.912 247.041 116.641C247.197 116.369 247.275 116.057 247.275 115.705C247.275 115.012 247.109 114.433 246.776 113.964C246.444 113.496 246.007 113.024 245.465 112.55L243.755 111.065C243.146 110.55 242.647 109.967 242.26 109.316C241.873 108.665 241.68 107.864 241.68 106.915C241.68 105.558 242.077 104.517 242.87 103.791C243.664 103.067 244.752 102.703 246.136 102.703C246.963 102.703 247.641 102.839 248.171 103.109C248.7 103.381 249.11 103.744 249.402 104.199C249.693 104.653 249.897 105.148 250.012 105.684C250.128 106.22 250.199 106.752 250.226 107.282L247.357 107.709C247.33 107.207 247.286 106.767 247.225 106.387C247.165 106.008 247.042 105.709 246.86 105.491C246.677 105.275 246.402 105.166 246.036 105.166C245.643 105.166 245.352 105.312 245.162 105.603C244.972 105.895 244.877 106.217 244.877 106.569C244.877 107.152 245.009 107.631 245.274 108.004C245.537 108.377 245.901 108.767 246.363 109.174L248.031 110.639C248.722 111.237 249.316 111.917 249.812 112.684C250.306 113.45 250.554 114.397 250.554 115.522C250.554 116.295 250.377 116.994 250.026 117.617C249.673 118.242 249.181 118.73 248.55 119.082C247.918 119.434 247.176 119.611 246.32 119.611Z" fill="#2F243A"/>
<path d="M253.808 119.386L251.672 102.906H254.521L255.66 112.977L257.105 102.926H259.363L260.868 112.957L262.007 102.906H264.815L262.699 119.386H259.85L258.243 108.95L256.717 119.386H253.808Z" fill="#2F243A"/>
<path d="M271.182 119.611C269.975 119.611 269.019 119.394 268.313 118.96C267.607 118.526 267.103 117.906 266.797 117.098C266.492 116.292 266.34 115.326 266.34 114.198V108.054C266.34 106.928 266.493 105.966 266.797 105.165C267.103 104.364 267.607 103.754 268.313 103.333C269.019 102.912 269.975 102.702 271.182 102.702C272.402 102.702 273.369 102.916 274.081 103.342C274.792 103.77 275.301 104.381 275.606 105.174C275.912 105.968 276.064 106.928 276.064 108.053V114.197C276.064 115.323 275.912 116.29 275.606 117.097C275.301 117.905 274.792 118.525 274.081 118.959C273.369 119.394 272.403 119.611 271.182 119.611ZM271.182 117.189C271.616 117.189 271.934 117.09 272.138 116.894C272.343 116.697 272.477 116.433 272.546 116.1C272.614 115.768 272.647 115.413 272.647 115.032V107.24C272.647 106.861 272.614 106.507 272.546 106.183C272.478 105.857 272.343 105.596 272.138 105.399C271.935 105.202 271.617 105.104 271.182 105.104C270.775 105.104 270.469 105.202 270.266 105.399C270.063 105.596 269.928 105.856 269.86 106.183C269.792 106.509 269.758 106.861 269.758 107.24V115.032C269.758 115.413 269.789 115.768 269.849 116.1C269.911 116.433 270.043 116.697 270.246 116.894C270.45 117.091 270.762 117.189 271.182 117.189Z" fill="#2F243A"/>
<path d="M278.305 119.386V102.906H282.577C283.689 102.906 284.641 103.031 285.435 103.283C286.229 103.534 286.839 103.978 287.267 104.616C287.695 105.254 287.908 106.135 287.908 107.261C287.908 107.94 287.85 108.54 287.735 109.062C287.619 109.584 287.415 110.039 287.124 110.425C286.832 110.812 286.422 111.12 285.894 111.351L288.172 119.387H284.733L282.84 111.921H281.661V119.387L278.305 119.386ZM281.662 109.925H282.639C283.181 109.925 283.608 109.837 283.92 109.661C284.233 109.485 284.453 109.217 284.581 108.857C284.709 108.498 284.775 108.054 284.775 107.524C284.775 106.765 284.636 106.185 284.358 105.785C284.08 105.384 283.56 105.184 282.801 105.184H281.662V109.925Z" fill="#2F243A"/>
<path d="M290.102 119.386V102.906H294.13C295.527 102.906 296.615 103.086 297.396 103.446C298.175 103.806 298.729 104.369 299.054 105.135C299.38 105.901 299.543 106.881 299.543 108.075V114.077C299.543 115.297 299.38 116.302 299.054 117.089C298.729 117.875 298.182 118.455 297.416 118.828C296.649 119.201 295.582 119.387 294.211 119.387L290.102 119.386ZM293.459 117.046H294.17C294.794 117.046 295.238 116.948 295.503 116.751C295.768 116.554 295.933 116.263 296.002 115.877C296.07 115.49 296.103 115.012 296.103 114.442V107.646C296.103 107.076 296.059 106.619 295.971 106.273C295.882 105.927 295.707 105.673 295.442 105.51C295.178 105.348 294.747 105.266 294.149 105.266H293.458V117.046H293.459Z" fill="#2F243A"/>
<path d="M151.17 316.085C150.326 316.085 149.656 315.926 149.163 315.606C148.67 315.287 148.325 314.844 148.128 314.275C147.931 313.707 147.832 313.046 147.832 312.296V308.197C147.832 307.408 147.931 306.73 148.128 306.161C148.325 305.593 148.671 305.154 149.163 304.844C149.656 304.534 150.324 304.38 151.17 304.38C151.986 304.38 152.628 304.516 153.092 304.789C153.557 305.061 153.886 305.446 154.079 305.943C154.271 306.441 154.367 307.018 154.367 307.675V308.633H152.114V307.563C152.114 307.3 152.099 307.053 152.071 306.822C152.042 306.593 151.965 306.404 151.838 306.259C151.712 306.114 151.493 306.042 151.183 306.042C150.873 306.042 150.649 306.117 150.507 306.266C150.366 306.417 150.278 306.611 150.24 306.851C150.202 307.09 150.184 307.356 150.184 307.647V312.83C150.184 313.15 150.21 313.429 150.261 313.668C150.314 313.908 150.412 314.091 150.557 314.218C150.702 314.345 150.911 314.408 151.183 314.408C151.484 314.408 151.698 314.335 151.825 314.189C151.952 314.044 152.03 313.849 152.064 313.605C152.097 313.36 152.114 313.102 152.114 312.83V311.718H154.367V312.661C154.367 313.328 154.273 313.917 154.084 314.429C153.897 314.941 153.572 315.345 153.113 315.641C152.654 315.937 152.007 316.085 151.17 316.085Z" fill="#E8E8E8"/>
<path d="M155.82 315.93V304.521H158.144V309.211H160.159V304.521H162.483V315.93H160.159V310.873H158.144V315.93H155.82Z" fill="#E8E8E8"/>
<path d="M163.68 315.93L165.891 304.521H168.469L170.666 315.93H168.511L168.103 313.422H166.299L165.862 315.93H163.68ZM166.512 312H167.878L167.188 307.394L166.512 312Z" fill="#E8E8E8"/>
<path d="M171.734 315.93V304.521H173.355L175.891 310.465V304.521H177.806V315.93H176.257L173.721 309.619V315.93H171.734Z" fill="#E8E8E8"/>
<path d="M182.456 316.098C181.687 316.098 181.076 315.937 180.624 315.612C180.173 315.288 179.852 314.828 179.66 314.232C179.467 313.636 179.371 312.943 179.371 312.154V308.337C179.371 307.521 179.47 306.815 179.667 306.225C179.864 305.633 180.21 305.178 180.702 304.859C181.195 304.539 181.864 304.38 182.709 304.38C183.526 304.38 184.172 304.516 184.646 304.789C185.12 305.061 185.461 305.446 185.667 305.943C185.874 306.441 185.978 307.033 185.978 307.718V308.38H183.71V307.577C183.71 307.276 183.691 307.011 183.654 306.781C183.616 306.55 183.529 306.37 183.392 306.238C183.257 306.107 183.038 306.041 182.738 306.041C182.428 306.041 182.203 306.12 182.062 306.279C181.922 306.439 181.833 306.644 181.795 306.892C181.757 307.142 181.739 307.407 181.739 307.688V312.746C181.739 313.065 181.767 313.352 181.823 313.606C181.879 313.86 181.985 314.056 182.139 314.198C182.294 314.339 182.517 314.409 182.809 314.409C183.1 314.409 183.325 314.334 183.485 314.183C183.644 314.034 183.755 313.829 183.815 313.57C183.876 313.312 183.907 313.019 183.907 312.69V311.478H182.794V310.069H186.006V315.93H184.484L184.343 314.901C184.193 315.249 183.967 315.535 183.667 315.761C183.368 315.987 182.964 316.098 182.456 316.098Z" fill="#E8E8E8"/>
<path d="M187.594 315.93V304.521H192.567V306.126H189.919V309.154H191.961V310.774H189.919V314.352H192.595V315.93H187.594Z" fill="#E8E8E8"/>
<path d="M197.289 315.93V304.521H200.909C201.594 304.521 202.154 304.65 202.585 304.908C203.016 305.167 203.338 305.54 203.55 306.028C203.761 306.516 203.867 307.108 203.867 307.803C203.867 308.62 203.728 309.258 203.451 309.719C203.174 310.179 202.797 310.506 202.318 310.698C201.839 310.891 201.29 310.987 200.67 310.987H199.614V315.931H197.289V315.93ZM199.614 309.352H200.43C200.769 309.352 201.029 309.297 201.212 309.189C201.395 309.081 201.52 308.91 201.585 308.675C201.65 308.441 201.683 308.14 201.683 307.773C201.683 307.425 201.657 307.135 201.606 306.9C201.554 306.666 201.439 306.482 201.262 306.351C201.084 306.219 200.802 306.154 200.417 306.154H199.614V309.352Z" fill="#E8E8E8"/>
<path d="M203.867 315.93L206.078 304.521H208.656L210.854 315.93H208.699L208.29 313.422H206.488L206.051 315.93H203.867ZM206.698 312H208.064L207.374 307.394L206.698 312Z" fill="#E8E8E8"/>
<path d="M214.88 316.085C214.176 316.085 213.589 315.956 213.12 315.698C212.65 315.44 212.295 315.05 212.056 314.529C211.818 314.007 211.679 313.343 211.641 312.535L213.641 312.198C213.66 312.667 213.709 313.059 213.789 313.374C213.868 313.689 213.99 313.923 214.154 314.079C214.318 314.234 214.524 314.312 214.767 314.312C215.068 314.312 215.272 314.218 215.38 314.03C215.489 313.842 215.542 313.626 215.542 313.381C215.542 312.903 215.427 312.501 215.196 312.177C214.967 311.852 214.663 311.527 214.287 311.198L213.104 310.169C212.681 309.813 212.337 309.409 212.069 308.957C211.802 308.507 211.668 307.952 211.668 307.295C211.668 306.357 211.942 305.636 212.492 305.133C213.041 304.631 213.796 304.38 214.753 304.38C215.326 304.38 215.795 304.474 216.162 304.661C216.528 304.849 216.812 305.101 217.014 305.415C217.216 305.729 217.356 306.073 217.437 306.443C217.516 306.814 217.566 307.182 217.584 307.548L215.598 307.844C215.579 307.497 215.549 307.192 215.506 306.928C215.464 306.666 215.379 306.459 215.252 306.308C215.125 306.158 214.935 306.082 214.682 306.082C214.41 306.082 214.208 306.183 214.076 306.385C213.945 306.587 213.879 306.809 213.879 307.054C213.879 307.458 213.97 307.789 214.153 308.047C214.336 308.305 214.588 308.576 214.906 308.857L216.061 309.872C216.54 310.285 216.951 310.757 217.294 311.287C217.638 311.818 217.809 312.473 217.809 313.252C217.809 313.788 217.686 314.271 217.443 314.702C217.198 315.134 216.858 315.472 216.421 315.716C215.986 315.963 215.472 316.085 214.88 316.085Z" fill="#E8E8E8"/>
<path d="M221.81 316.085C221.106 316.085 220.519 315.956 220.049 315.698C219.58 315.44 219.226 315.05 218.986 314.529C218.747 314.007 218.608 313.343 218.57 312.535L220.571 312.198C220.59 312.667 220.639 313.059 220.718 313.374C220.798 313.689 220.92 313.923 221.084 314.079C221.248 314.234 221.454 314.312 221.697 314.312C221.998 314.312 222.202 314.218 222.31 314.03C222.418 313.842 222.472 313.626 222.472 313.381C222.472 312.903 222.358 312.501 222.127 312.177C221.898 311.852 221.594 311.527 221.218 311.198L220.035 310.169C219.612 309.813 219.268 309.409 219 308.957C218.733 308.507 218.599 307.952 218.599 307.295C218.599 306.357 218.873 305.636 219.423 305.133C219.972 304.631 220.725 304.38 221.684 304.38C222.257 304.38 222.727 304.474 223.093 304.661C223.459 304.849 223.743 305.101 223.945 305.415C224.147 305.729 224.287 306.073 224.368 306.443C224.447 306.814 224.497 307.182 224.515 307.548L222.529 307.844C222.51 307.497 222.48 307.192 222.437 306.928C222.394 306.666 222.311 306.459 222.184 306.308C222.057 306.158 221.867 306.082 221.614 306.082C221.342 306.082 221.14 306.183 221.008 306.385C220.877 306.587 220.811 306.809 220.811 307.054C220.811 307.458 220.902 307.789 221.085 308.047C221.268 308.305 221.52 308.576 221.838 308.857L222.993 309.872C223.472 310.285 223.883 310.757 224.226 311.287C224.57 311.818 224.741 312.473 224.741 313.252C224.741 313.788 224.618 314.271 224.375 314.702C224.13 315.134 223.79 315.472 223.353 315.716C222.915 315.963 222.402 316.085 221.81 316.085Z" fill="#E8E8E8"/>
<path d="M226.995 315.93L225.516 304.521H227.488L228.277 311.493L229.277 304.535H230.84L231.883 311.479L232.672 304.521H234.616L233.151 315.93H231.179L230.066 308.703L229.01 315.93H226.995Z" fill="#E8E8E8"/>
<path d="M239.024 316.085C238.188 316.085 237.526 315.936 237.038 315.634C236.55 315.333 236.201 314.904 235.989 314.345C235.778 313.786 235.672 313.118 235.672 312.338V308.084C235.672 307.305 235.778 306.637 235.989 306.083C236.201 305.53 236.55 305.107 237.038 304.816C237.526 304.525 238.188 304.38 239.024 304.38C239.869 304.38 240.538 304.527 241.032 304.824C241.525 305.12 241.877 305.543 242.088 306.092C242.3 306.642 242.405 307.306 242.405 308.085V312.339C242.405 313.119 242.3 313.788 242.088 314.346C241.877 314.904 241.525 315.334 241.032 315.635C240.538 315.934 239.869 316.085 239.024 316.085ZM239.024 314.409C239.325 314.409 239.546 314.341 239.686 314.205C239.826 314.068 239.92 313.885 239.968 313.655C240.015 313.425 240.038 313.178 240.038 312.916V307.521C240.038 307.258 240.014 307.014 239.968 306.788C239.92 306.562 239.826 306.382 239.686 306.245C239.545 306.11 239.325 306.041 239.024 306.041C238.743 306.041 238.531 306.108 238.391 306.245C238.25 306.382 238.156 306.562 238.11 306.788C238.062 307.013 238.038 307.257 238.038 307.521V312.916C238.038 313.178 238.06 313.425 238.101 313.655C238.144 313.885 238.236 314.068 238.376 314.205C238.517 314.34 238.733 314.409 239.024 314.409Z" fill="#E8E8E8"/>
<path d="M243.953 315.93V304.521H246.911C247.681 304.521 248.34 304.607 248.89 304.781C249.439 304.955 249.862 305.262 250.158 305.704C250.454 306.146 250.601 306.755 250.601 307.536C250.601 308.005 250.562 308.421 250.481 308.782C250.402 309.143 250.26 309.458 250.058 309.725C249.856 309.992 249.572 310.206 249.206 310.367L250.784 315.931H248.403L247.093 310.762H246.277V315.931H243.953V315.93ZM246.278 309.381H246.954C247.329 309.381 247.625 309.32 247.841 309.198C248.058 309.075 248.211 308.89 248.3 308.642C248.389 308.392 248.434 308.086 248.434 307.719C248.434 307.192 248.338 306.791 248.146 306.514C247.953 306.237 247.594 306.099 247.068 306.099H246.279V309.381H246.278Z" fill="#E8E8E8"/>
<path d="M252.125 315.93V304.521H254.914C255.881 304.521 256.635 304.645 257.175 304.894C257.715 305.143 258.098 305.533 258.323 306.063C258.549 306.594 258.661 307.271 258.661 308.098V312.253C258.661 313.098 258.549 313.794 258.323 314.338C258.097 314.882 257.719 315.284 257.189 315.542C256.658 315.799 255.919 315.929 254.971 315.929L252.125 315.93ZM254.449 314.31H254.942C255.374 314.31 255.682 314.242 255.865 314.105C256.048 313.969 256.163 313.767 256.209 313.499C256.257 313.232 256.281 312.901 256.281 312.506V307.802C256.281 307.407 256.25 307.09 256.189 306.851C256.129 306.611 256.006 306.436 255.823 306.323C255.64 306.21 255.342 306.154 254.929 306.154H254.45L254.449 314.31Z" fill="#E8E8E8"/>
<path d="M156.958 226.424C156.228 226.424 155.663 226.271 155.261 225.967C154.859 225.661 154.58 225.25 154.423 224.733C154.266 224.217 154.188 223.64 154.188 223.006V219.371C154.188 218.676 154.266 218.07 154.423 217.553C154.58 217.036 154.859 216.636 155.261 216.352C155.663 216.068 156.228 215.927 156.958 215.927C157.602 215.927 158.113 216.046 158.489 216.282C158.866 216.52 159.138 216.858 159.303 217.299C159.468 217.74 159.55 218.269 159.55 218.887V219.701H158.19V218.976C158.19 218.596 158.171 218.259 158.133 217.967C158.095 217.674 157.99 217.447 157.822 217.287C157.652 217.127 157.368 217.045 156.97 217.045C156.564 217.045 156.267 217.133 156.08 217.306C155.893 217.479 155.773 217.725 155.719 218.043C155.663 218.361 155.636 218.73 155.636 219.155V223.234C155.636 223.751 155.678 224.16 155.763 224.461C155.847 224.762 155.987 224.976 156.182 225.103C156.377 225.23 156.64 225.294 156.97 225.294C157.359 225.294 157.639 225.207 157.809 225.033C157.978 224.859 158.084 224.621 158.127 224.315C158.17 224.011 158.19 223.655 158.19 223.247V222.485H159.55V223.247C159.55 223.874 159.474 224.427 159.322 224.906C159.17 225.384 158.906 225.757 158.534 226.025C158.16 226.29 157.635 226.424 156.958 226.424Z" fill="#2F243A"/>
<path d="M163.553 226.424C162.858 226.424 162.303 226.289 161.888 226.018C161.473 225.746 161.176 225.359 160.998 224.855C160.82 224.351 160.73 223.759 160.73 223.082V219.18C160.73 218.503 160.821 217.92 161.004 217.432C161.185 216.945 161.481 216.572 161.894 216.313C162.305 216.055 162.857 215.926 163.552 215.926C164.247 215.926 164.798 216.056 165.204 216.32C165.611 216.583 165.905 216.956 166.088 217.438C166.27 217.922 166.362 218.501 166.362 219.18V223.094C166.362 223.764 166.271 224.348 166.088 224.848C165.907 225.348 165.612 225.735 165.204 226.011C164.799 226.286 164.248 226.424 163.553 226.424ZM163.553 225.293C163.934 225.293 164.223 225.215 164.418 225.058C164.613 224.901 164.745 224.681 164.812 224.397C164.88 224.113 164.915 223.781 164.915 223.399V218.887C164.915 218.506 164.88 218.178 164.812 217.903C164.745 217.627 164.613 217.416 164.418 217.267C164.223 217.12 163.936 217.045 163.553 217.045C163.173 217.045 162.882 217.12 162.684 217.267C162.484 217.416 162.351 217.627 162.283 217.903C162.215 218.178 162.182 218.506 162.182 218.887V223.399C162.182 223.781 162.217 224.113 162.283 224.397C162.351 224.681 162.484 224.901 162.684 225.058C162.882 225.215 163.172 225.293 163.553 225.293Z" fill="#2F243A"/>
<path d="M167.773 226.31V216.015H168.752L171.675 222.853V216.015H172.87V226.31H171.955L168.994 219.282V226.31H167.773Z" fill="#2F243A"/>
<path d="M174.484 226.31V216.015H178.462V217.043H175.919V220.476H177.89V221.493H175.919V226.31H174.484Z" fill="#2F243A"/>
<path d="M179.531 226.31V216.015H180.941V226.31H179.531Z" fill="#2F243A"/>
<path d="M182.605 226.31V216.015H184.677C185.364 216.015 185.931 216.106 186.38 216.288C186.829 216.47 187.161 216.762 187.378 217.165C187.594 217.566 187.702 218.095 187.702 218.747C187.702 219.145 187.659 219.507 187.575 219.834C187.491 220.16 187.354 220.435 187.169 220.66C186.982 220.884 186.737 221.047 186.432 221.149L187.893 226.309H186.508L185.161 221.479H184.042V226.309L182.605 226.31ZM184.042 220.449H184.588C184.995 220.449 185.325 220.4 185.579 220.297C185.833 220.196 186.02 220.022 186.139 219.776C186.257 219.53 186.316 219.187 186.316 218.747C186.316 218.146 186.206 217.711 185.985 217.444C185.764 217.177 185.328 217.043 184.676 217.043H184.041V220.449H184.042Z" fill="#2F243A"/>
<path d="M189.176 226.31L189.366 216.015H190.777L192.595 224.365L194.424 216.015H195.823L196.014 226.31H194.858L194.744 218.836L193.002 226.31H192.189L190.46 218.836L190.346 226.31H189.176Z" fill="#2F243A"/>
<path d="M200.5 226.31V216.015H203.054C203.673 216.015 204.166 216.128 204.536 216.352C204.904 216.577 205.172 216.901 205.342 217.324C205.512 217.747 205.597 218.26 205.597 218.861C205.597 219.403 205.501 219.873 205.31 220.272C205.12 220.67 204.837 220.978 204.466 221.193C204.093 221.409 203.627 221.517 203.067 221.517H201.936V226.309L200.5 226.31ZM201.936 220.489H202.597C203.013 220.489 203.338 220.442 203.576 220.348C203.813 220.255 203.982 220.092 204.084 219.859C204.185 219.626 204.236 219.298 204.236 218.874C204.236 218.382 204.199 218.006 204.128 217.743C204.056 217.481 203.906 217.298 203.677 217.197C203.447 217.095 203.092 217.043 202.609 217.043H201.934V220.489H201.936Z" fill="#2F243A"/>
<path d="M205.559 226.31L207.745 216.015H209.13L211.329 226.31H209.97L209.499 223.716H207.401L206.906 226.31H205.559ZM207.591 222.688H209.307L208.443 218.049L207.591 222.688Z" fill="#2F243A"/>
<path d="M214.799 226.424C214.206 226.424 213.713 226.297 213.319 226.043C212.924 225.789 212.626 225.437 212.423 224.988C212.22 224.539 212.101 224.017 212.066 223.424L213.338 223.081C213.364 223.446 213.421 223.797 213.509 224.135C213.598 224.473 213.745 224.751 213.948 224.968C214.151 225.184 214.435 225.292 214.799 225.292C215.172 225.292 215.453 225.187 215.643 224.981C215.835 224.773 215.93 224.473 215.93 224.085C215.93 223.618 215.824 223.244 215.611 222.96C215.4 222.676 215.134 222.391 214.811 222.102L213.083 220.577C212.745 220.281 212.494 219.957 212.333 219.605C212.172 219.253 212.091 218.82 212.091 218.302C212.091 217.549 212.308 216.963 212.739 216.548C213.171 216.132 213.76 215.926 214.505 215.926C214.912 215.926 215.269 215.979 215.579 216.085C215.888 216.191 216.147 216.353 216.355 216.573C216.562 216.794 216.728 217.071 216.852 217.406C216.974 217.741 217.057 218.132 217.099 218.582L215.879 218.912C215.854 218.574 215.803 218.263 215.727 217.979C215.651 217.695 215.518 217.465 215.326 217.293C215.135 217.12 214.862 217.032 214.507 217.032C214.151 217.032 213.873 217.127 213.674 217.318C213.474 217.509 213.376 217.79 213.376 218.163C213.376 218.476 213.429 218.735 213.535 218.939C213.64 219.142 213.813 219.35 214.049 219.561L215.791 221.086C216.18 221.425 216.524 221.83 216.821 222.301C217.117 222.771 217.265 223.328 217.265 223.972C217.265 224.481 217.159 224.919 216.947 225.287C216.735 225.657 216.444 225.938 216.076 226.132C215.708 226.327 215.282 226.424 214.799 226.424Z" fill="#2F243A"/>
<path d="M220.811 226.424C220.218 226.424 219.725 226.297 219.33 226.043C218.936 225.789 218.638 225.437 218.435 224.988C218.231 224.539 218.113 224.017 218.078 223.424L219.349 223.081C219.375 223.446 219.432 223.797 219.52 224.135C219.609 224.473 219.757 224.751 219.96 224.968C220.163 225.184 220.447 225.292 220.811 225.292C221.184 225.292 221.465 225.187 221.655 224.981C221.846 224.773 221.941 224.473 221.941 224.085C221.941 223.618 221.836 223.244 221.623 222.96C221.412 222.676 221.146 222.391 220.822 222.102L219.095 220.577C218.756 220.281 218.506 219.957 218.344 219.605C218.184 219.253 218.103 218.82 218.103 218.302C218.103 217.549 218.319 216.963 218.751 216.548C219.183 216.132 219.772 215.926 220.517 215.926C220.923 215.926 221.281 215.979 221.591 216.085C221.9 216.191 222.159 216.353 222.367 216.573C222.574 216.794 222.74 217.071 222.862 217.406C222.985 217.741 223.068 218.132 223.109 218.582L221.889 218.912C221.864 218.574 221.813 218.263 221.737 217.979C221.661 217.695 221.528 217.465 221.337 217.293C221.147 217.12 220.872 217.032 220.517 217.032C220.162 217.032 219.884 217.127 219.684 217.318C219.485 217.509 219.386 217.79 219.386 218.163C219.386 218.476 219.44 218.735 219.545 218.939C219.651 219.142 219.823 219.35 220.06 219.561L221.801 221.086C222.191 221.425 222.534 221.83 222.831 222.301C223.127 222.771 223.276 223.328 223.276 223.972C223.276 224.481 223.17 224.919 222.957 225.287C222.746 225.657 222.455 225.938 222.088 226.132C221.719 226.327 221.294 226.424 220.811 226.424Z" fill="#2F243A"/>
<path d="M225.728 226.31L224.051 216.015H225.246L226.351 223.412L227.736 216.054H228.753L230.151 223.45L231.231 216.016H232.4L230.748 226.311H229.704L228.268 218.685L226.819 226.311H225.728V226.31Z" fill="#2F243A"/>
<path d="M236.186 226.424C235.491 226.424 234.936 226.289 234.52 226.018C234.105 225.746 233.809 225.359 233.631 224.855C233.452 224.351 233.363 223.759 233.363 223.082V219.18C233.363 218.503 233.454 217.92 233.637 217.432C233.818 216.945 234.114 216.572 234.526 216.313C234.937 216.055 235.49 215.926 236.185 215.926C236.88 215.926 237.431 216.056 237.837 216.32C238.244 216.583 238.538 216.956 238.721 217.438C238.903 217.922 238.994 218.501 238.994 219.18V223.094C238.994 223.764 238.904 224.348 238.721 224.848C238.539 225.348 238.245 225.735 237.837 226.011C237.432 226.286 236.881 226.424 236.186 226.424ZM236.186 225.293C236.567 225.293 236.856 225.215 237.05 225.058C237.244 224.901 237.376 224.681 237.444 224.397C237.512 224.113 237.546 223.781 237.546 223.399V218.887C237.546 218.506 237.512 218.178 237.444 217.903C237.376 217.627 237.244 217.416 237.05 217.267C236.855 217.12 236.567 217.045 236.186 217.045C235.805 217.045 235.515 217.12 235.315 217.267C235.116 217.416 234.983 217.627 234.915 217.903C234.847 218.178 234.814 218.506 234.814 218.887V223.399C234.814 223.781 234.847 224.113 234.915 224.397C234.983 224.681 235.116 224.901 235.315 225.058C235.515 225.215 235.806 225.293 236.186 225.293Z" fill="#2F243A"/>
<path d="M240.406 226.31V216.015H242.478C243.164 216.015 243.731 216.106 244.181 216.288C244.63 216.47 244.962 216.762 245.178 217.165C245.395 217.566 245.503 218.095 245.503 218.747C245.503 219.145 245.46 219.507 245.376 219.834C245.291 220.16 245.155 220.435 244.969 220.66C244.783 220.884 244.537 221.047 244.233 221.149L245.694 226.309H244.309L242.962 221.479H241.843V226.309L240.406 226.31ZM241.841 220.449H242.388C242.794 220.449 243.124 220.4 243.379 220.297C243.633 220.196 243.819 220.022 243.938 219.776C244.057 219.53 244.115 219.187 244.115 218.747C244.115 218.146 244.006 217.711 243.785 217.444C243.564 217.177 243.128 217.043 242.476 217.043H241.84V220.449H241.841Z" fill="#2F243A"/>
<path d="M247.004 226.31V216.015H249.241C250.004 216.015 250.607 216.131 251.053 216.364C251.498 216.597 251.815 216.946 252.005 217.412C252.197 217.879 252.292 218.458 252.292 219.153V222.941C252.292 223.669 252.197 224.283 252.005 224.783C251.814 225.283 251.505 225.662 251.078 225.921C250.65 226.179 250.075 226.309 249.355 226.309L247.004 226.31ZM248.439 225.28H249.253C249.778 225.28 250.151 225.178 250.371 224.975C250.592 224.771 250.725 224.474 250.771 224.085C250.817 223.695 250.841 223.225 250.841 222.673V219.33C250.841 218.797 250.808 218.365 250.74 218.034C250.672 217.704 250.524 217.463 250.295 217.31C250.067 217.158 249.705 217.081 249.215 217.081H248.439V225.28Z" fill="#2F243A"/>
<path d="M110.645 435.218L101.445 483.14L86.719 526.956L83.0813 533.803C83.0813 533.803 79.016 539.793 78.5883 544.286C78.1606 548.779 82.4398 551.346 85.6486 549.848C88.8574 548.35 90.5693 542.146 91.2108 539.365C91.8523 536.584 93.1366 531.663 93.5642 529.951C93.9919 528.239 94.8485 526.956 94.8485 526.956C94.8485 526.956 120.272 484.637 120.272 483.354C120.272 482.071 132.253 450.835 132.253 450.835L134.606 451.049L141.666 485.922L121.984 526.784C121.984 526.784 115.78 534.058 116.208 534.914C116.635 535.769 120.059 539.193 121.342 540.048C122.625 540.903 127.332 548.391 130.756 549.248C134.178 550.103 135.463 550.96 134.821 548.179C134.18 545.398 132.254 541.118 131.826 539.835C131.398 538.551 130.55 529.604 130.55 529.604L160.066 490.628L156.215 442.492L110.645 435.218Z" fill="white" stroke="#2F243A" stroke-miterlimit="10" stroke-linecap="round" stroke-linejoin="round"/>
<path d="M123.982 539.866C122.535 538.78 119.189 535.32 117.068 533.079C116.47 533.977 116.093 534.683 116.208 534.915C116.636 535.77 120.059 539.194 121.343 540.049C122.626 540.904 127.333 548.392 130.756 549.249C133.043 549.82 134.37 550.386 134.811 549.874C127.867 548.05 125.827 541.249 123.982 539.866Z" fill="white" stroke="#2F243A" stroke-miterlimit="10" stroke-linecap="round" stroke-linejoin="round"/>
<path d="M89.6343 544.504C87.3997 546.748 84.7837 548.445 82.0074 547.612C78.7416 546.632 79.5233 541.716 80.3953 538.576C79.5375 540.394 78.7618 542.461 78.5883 544.286C78.1606 548.779 82.4398 551.346 85.6486 549.848C87.4021 549.029 88.7053 546.807 89.6343 544.504Z" fill="white" stroke="#2F243A" stroke-miterlimit="10" stroke-linecap="round" stroke-linejoin="round"/>
<path d="M110.644 435.218L101.445 483.14L86.7188 526.956C86.7188 526.956 88.0339 531.654 93.8349 529.075C94.278 527.824 94.8494 526.956 94.8494 526.956C94.8494 526.956 120.273 484.637 120.273 483.354C120.273 482.071 132.254 450.835 132.254 450.835L134.607 451.049L141.667 485.922L121.985 526.784C121.985 526.784 124.545 531.094 130.627 529.502L160.066 490.628L156.214 442.492L110.644 435.218Z" fill="#2F243A" stroke="#2F243A" stroke-miterlimit="10" stroke-linecap="round" stroke-linejoin="round"/>
<path d="M146.777 368.403L141.439 369.387L116.996 440.469C116.996 440.469 121.632 448.616 136.663 448.476C151.695 448.336 156.049 445.946 156.049 445.946L155.627 402.96L161.797 374.513C161.797 374.513 152.256 368.685 146.777 368.403Z" fill="white" stroke="#2F243A" stroke-miterlimit="10"/>
<path d="M174.313 348.879C174.313 348.879 174.313 355.409 173.975 356.309C173.638 357.21 171.948 358.448 171.948 359.236C171.948 360.025 173.862 363.176 173.525 363.965C173.187 364.752 169.81 365.653 169.81 365.653C169.81 365.653 166.996 371.169 165.645 371.732C164.294 372.295 159.004 369.593 159.004 369.593L155.965 378.937C155.965 378.937 154.614 381.526 149.549 380.738C144.483 379.95 142.682 378.036 142.457 376.799C142.233 375.561 141.67 375.222 142.345 373.871C143.021 372.521 144.033 369.593 144.033 369.593L150.449 356.086L151.463 349.895C151.463 349.895 153.714 345.505 162.044 344.605C170.373 343.701 174.313 348.879 174.313 348.879Z" fill="white" stroke="#2F243A" stroke-miterlimit="10"/>
<path d="M165.645 363.287C165.645 363.287 165.87 365.314 168.459 365.989" stroke="#2F243A" stroke-miterlimit="10" stroke-linecap="round" stroke-linejoin="round"/>
<path d="M171.725 355.745C171.725 355.745 170.262 353.944 168.348 354.507" stroke="#2F243A" stroke-miterlimit="10" stroke-linecap="round" stroke-linejoin="round"/>
<path d="M170.02 358.427C169.9 359.005 169.482 359.407 169.086 359.325C168.69 359.243 168.467 358.707 168.587 358.128C168.707 357.55 169.125 357.148 169.521 357.23C169.916 357.314 170.14 357.848 170.02 358.427Z" fill="#2F243A"/>
<path d="M159.003 369.591L155.738 366.664L158.102 372.743L159.003 369.591Z" fill="#2F243A" stroke="#2F243A" stroke-miterlimit="10" stroke-linecap="round" stroke-linejoin="round"/>
<path d="M156.753 354.282C156.753 354.282 161.369 352.705 162.607 351.918C163.845 351.13 162.156 348.54 163.17 347.64C164.183 346.739 168.573 346.289 170.937 347.077C173.301 347.864 173.414 349.665 175.665 349.328C177.917 348.991 180.731 347.19 179.493 344.038C178.255 340.886 174.54 338.185 171.501 337.847C168.462 337.51 165.311 338.297 161.37 337.847C157.431 337.397 153.377 335.933 151.239 340.211C149.1 344.489 147.299 349.105 148.087 351.356C148.875 353.607 149.213 356.422 150.114 356.872C151.012 357.322 156.753 354.282 156.753 354.282Z" fill="#2F243A" stroke="#2F243A" stroke-miterlimit="10"/>
<path d="M157.315 355.858C157.315 355.858 156.865 350.455 154.5 351.468C152.136 352.482 152.362 357.659 153.826 358.672C155.289 359.686 156.527 358.109 156.527 358.109" fill="white"/>
<path d="M157.315 355.858C157.315 355.858 156.865 350.455 154.5 351.468C152.136 352.482 152.362 357.659 153.826 358.672C155.289 359.686 156.527 358.109 156.527 358.109" stroke="#2F243A" stroke-miterlimit="10"/>
<path d="M140.771 379.384L118.258 452.44C118.258 452.44 112.404 447.824 109.14 444.673C105.875 441.521 105.087 440.62 105.087 440.62L113.192 422.722L114.656 416.982L90.9038 432.74L86.8516 424.748L107.001 406.737C107.001 406.737 119.384 372.404 120.171 371.954C120.959 371.504 143.473 368.465 143.473 368.465L140.771 379.384Z" fill="#B2B2B2" stroke="#2F243A" stroke-miterlimit="10"/>
<path d="M145.608 366.551C145.608 366.551 142.231 365.651 140.543 367.339C138.854 369.027 132.663 377.921 134.239 378.821C135.815 379.722 140.092 377.357 140.092 377.357L140.767 379.384L145.608 366.551Z" fill="white" stroke="#2F243A" stroke-miterlimit="10"/>
<path d="M121.969 383.324L114.652 416.981" stroke="#2F243A" stroke-miterlimit="10" stroke-linecap="round" stroke-linejoin="round"/>
<path d="M134.014 392.442L122.644 391.09L121.969 394.805L133.451 396.831L134.014 394.805" stroke="#2F243A" stroke-miterlimit="10" stroke-linecap="round" stroke-linejoin="round"/>
<path d="M121.002 387.488C121.002 387.488 119.799 380.8 119.531 377.189" stroke="#2F243A" stroke-miterlimit="10" stroke-linecap="round" stroke-linejoin="round"/>
<path d="M120.333 388.96C120.333 388.96 118.326 385.616 116.988 383.477" stroke="#2F243A" stroke-miterlimit="10" stroke-linecap="round" stroke-linejoin="round"/>
<path d="M155.964 378.934C155.964 378.934 150.427 402.203 150.561 409.291C150.695 416.38 152.568 453.966 152.568 453.966C152.568 453.966 159.791 452.628 160.994 452.227C162.197 451.825 166.879 450.355 166.879 450.355C166.879 450.355 158.72 423.871 158.72 422.934C158.72 421.998 160.191 415.711 160.191 415.711C160.191 415.711 165.006 426.546 165.675 427.348C166.344 428.151 184.767 436.456 184.767 436.456L186.407 426.679L174.77 415.979C174.77 415.979 172.229 395.781 172.229 394.176C172.229 392.571 172.898 382.406 172.898 382.406L158.319 370.902L155.964 378.934Z" fill="#B2B2B2" stroke="#2F243A" stroke-miterlimit="10"/>
<path d="M200.555 433.165C200.555 433.165 194.719 434.437 193.222 434.587C191.725 434.737 188.883 434.437 187.611 433.988C186.339 433.539 183.87 432.566 183.87 432.566C183.87 432.566 183.346 431.071 183.721 430.247C184.095 429.424 186.115 429.499 186.115 429.499L198.758 430.771L200.555 433.165Z" fill="white" stroke="#2F243A" stroke-miterlimit="10"/>
<path d="M166.746 391.904L160.191 415.713" stroke="#2F243A" stroke-miterlimit="10" stroke-linecap="round" stroke-linejoin="round"/>
<path d="M163.133 398.191L155.241 396.185L154.84 399.395L161.796 401.267" stroke="#2F243A" stroke-miterlimit="10" stroke-linecap="round" stroke-linejoin="round"/>
<path d="M164.203 402.07L168.216 396.317" stroke="#2F243A" stroke-miterlimit="10" stroke-linecap="round" stroke-linejoin="round"/>
<path d="M155.379 382.674L156.85 381.203C156.85 381.203 160.194 385.082 160.863 383.878C161.532 382.675 162.869 379.598 161.799 374.516C160.728 369.433 159.006 369.591 159.006 369.591L155.967 378.935L155.379 382.674Z" fill="white" stroke="#2F243A" stroke-miterlimit="10"/>
<path d="M230.396 436.634L223.37 484.131L207.25 530.381C207.25 530.381 201.684 536.331 200.149 543.048C198.614 549.765 203.028 550.148 205.331 548.421C207.634 546.694 213.199 531.917 213.392 531.149C213.584 530.381 237.572 489.505 237.956 488.928C238.34 488.352 249.855 454.769 249.855 454.769L258.299 487.777L275.763 535.755C275.763 535.755 276.914 544.006 279.793 547.269C282.671 550.531 286.893 552.834 287.661 549.956C288.428 547.077 287.852 542.088 285.742 539.784C283.631 537.481 280.369 532.684 280.369 532.684L274.228 483.171L270.424 436.861L230.396 436.634Z" fill="white" stroke="#2F243A" stroke-miterlimit="10"/>
<path d="M274.226 483.172L270.422 436.862L230.396 436.635L223.371 484.132L210.633 520.676L218.032 522.969C225.074 510.806 237.678 489.346 237.954 488.931C238.338 488.354 249.853 454.771 249.853 454.771L258.298 487.779L272.144 525.818L279.22 523.434L274.226 483.172Z" fill="#2F243A" stroke="#2F243A" stroke-miterlimit="10"/>
<path d="M205.331 548.421C206.526 547.524 208.601 543.112 210.346 538.967L206.29 543.622L201.493 542.279L202.324 537.426C201.413 539.145 200.603 541.059 200.149 543.046C198.614 549.764 203.028 550.148 205.331 548.421Z" fill="#2F243A" stroke="#2F243A" stroke-miterlimit="10"/>
<path d="M287.659 549.957C288.427 547.079 287.851 542.089 285.741 539.785C285.596 539.626 285.444 539.454 285.289 539.275L286.317 545.735L282.478 547.079L276.383 539.005C276.997 541.684 278.094 545.345 279.792 547.27C282.67 550.532 286.892 552.836 287.659 549.957Z" fill="#2F243A" stroke="#2F243A" stroke-miterlimit="10"/>
<path d="M230.398 436.634C230.398 436.634 238.646 451.21 250.092 451.867C261.538 452.526 270.425 436.861 270.425 436.861L231.147 435.29L230.398 436.634Z" fill="white" stroke="#2F243A" stroke-miterlimit="10"/>
<path d="M243.359 381.372C243.359 381.372 230.51 387.626 230.396 388.422C230.282 389.218 221.657 423.633 221.657 423.633C221.657 423.633 218.58 430.508 222.446 432.669C226.311 434.83 233.239 427.652 233.239 427.652L230.396 436.635C230.396 436.635 239.541 441.227 251.986 441.865C261.552 442.356 270.421 436.862 270.421 436.862L269.056 427.425C269.056 427.425 277.04 432.799 279.883 431.548C282.726 430.298 284.862 427.766 284.862 426.061C284.862 424.356 283.497 423.9 281.223 421.399C278.949 418.897 275.196 406.503 275.196 406.503C275.196 406.503 272.013 389.447 271.217 388.082C270.421 386.717 260.528 382.282 260.528 382.282L243.359 381.372Z" fill="#B2B2B2" stroke="#2F243A" stroke-miterlimit="10"/>
<path d="M235.353 395.164L237.59 402.006L233.238 427.652" stroke="#2F243A" stroke-miterlimit="10"/>
<path d="M269.037 396.347L267.457 401.741L269.058 427.424" stroke="#2F243A" stroke-miterlimit="10"/>
<path d="M231.406 433.187C231.406 433.187 250.747 439.108 269.956 433.713" stroke="#2F243A" stroke-miterlimit="10"/>
<path d="M88.2878 415.185C88.2878 415.185 84.7701 415.938 84.0169 416.316C83.2637 416.692 83.1378 418.2 82.1327 418.828C81.1277 419.457 79.6201 420.336 80.4992 420.964C81.3783 421.593 83.2138 422.06 84.1179 420.82C85.0219 419.583 87.2898 418.534 87.6641 418.681" fill="white"/>
<path d="M88.2878 415.185C88.2878 415.185 84.7701 415.938 84.0169 416.316C83.2637 416.692 83.1378 418.2 82.1327 418.828C81.1277 419.457 79.6201 420.336 80.4992 420.964C81.3783 421.593 83.2138 422.06 84.1179 420.82C85.0219 419.583 87.2898 418.534 87.6641 418.681" stroke="#2F243A" stroke-miterlimit="10"/>
<path d="M215.948 432.449C215.948 432.449 214.61 432.371 213.822 431.741C213.035 431.112 211.775 430.875 211.067 430.718C210.359 430.56 210.595 429.931 211.619 429.537C212.643 429.144 214.532 429.301 215.476 429.695C216.42 430.09 216.893 430.561 216.893 430.561L215.948 432.449Z" fill="white" stroke="#2F243A" stroke-miterlimit="10"/>
<path d="M386.136 420.233H169.566V430.236H386.136V420.233Z" fill="#F8B09B" stroke="#2F243A" stroke-miterlimit="10"/>
<path d="M130.555 380.286C105.73 380.286 85.6055 400.411 85.6055 425.235C85.6055 450.06 105.73 470.185 130.555 470.185C155.379 470.185 175.504 450.06 175.504 425.235C175.504 400.411 155.38 380.286 130.555 380.286ZM130.555 458.423C112.226 458.423 97.3667 443.565 97.3667 425.235C97.3667 406.906 112.225 392.047 130.555 392.047C148.883 392.047 163.743 406.906 163.743 425.235C163.743 443.565 148.884 458.423 130.555 458.423Z" fill="#F8B09B" stroke="#2F243A" stroke-miterlimit="10"/>
<path d="M347.199 420.233V467.145H356.425C356.423 467.058 356.412 466.974 356.412 466.886C356.412 460.87 361.289 455.993 367.305 455.993C373.321 455.993 378.198 460.87 378.198 466.886C378.198 466.973 378.187 467.058 378.185 467.145H386.138V420.233H347.199Z" fill="#F8B09B" stroke="#2F243A" stroke-miterlimit="10"/>
<path d="M296.578 420.233V447.157H301.873C301.872 447.107 301.866 447.058 301.866 447.009C301.866 443.556 304.665 440.756 308.117 440.756C311.569 440.756 314.368 443.555 314.368 447.009C314.368 447.058 314.362 447.107 314.361 447.157H318.926V420.233H296.578Z" fill="#F8B09B" stroke="#2F243A" stroke-miterlimit="10"/>
<path d="M259.064 345.963C259.064 345.963 262.186 343.408 260.768 340.854C259.348 338.298 253.103 334.513 250.549 335.46C247.993 336.407 242.979 341.706 242.6 343.693C242.221 345.681 246.196 348.425 246.952 348.519C247.709 348.613 254.145 344.828 259.064 345.963Z" fill="#2F243A" stroke="#2F243A" stroke-miterlimit="10"/>
<path d="M252.913 345.112C252.913 345.112 242.694 347.95 239.854 353.438C237.016 358.927 236.826 360.157 238.435 362.806C240.043 365.455 244.017 370.187 247.708 372.079C251.398 373.972 263.132 371.228 263.132 371.228C263.132 371.228 266.728 369.619 267.863 366.78C268.999 363.942 271.553 359.967 269.85 355.709C268.147 351.451 260.577 345.585 258.211 344.922C255.846 344.26 252.913 345.112 252.913 345.112Z" fill="#2F243A" stroke="#2F243A" stroke-miterlimit="10"/>
<path d="M260.352 352.292C260.352 352.292 255.255 355.428 252.642 357.258C250.028 359.087 246.892 360.133 246.892 360.133C246.892 360.133 244.539 361.178 245.062 363.923C245.585 366.667 246.574 376.148 246.574 376.148L244.801 379.997L252.38 388.361L258.392 380.52L259.045 376.469C259.045 376.469 264.533 373.071 264.664 372.287C264.795 371.503 266.363 360.003 266.232 358.826C266.102 357.65 260.352 352.292 260.352 352.292Z" fill="white" stroke="#2F243A" stroke-miterlimit="10"/>
<path d="M261.24 360.347C261.24 360.347 260.956 362.902 260.956 363.28C260.956 363.658 263.227 365.645 262.376 366.402C261.524 367.159 259.82 367.633 259.82 367.633" stroke="#2F243A" stroke-miterlimit="10" stroke-linecap="round" stroke-linejoin="round"/>
<path d="M260.106 369.998C260.106 369.998 259.161 371.039 257.078 368.862" stroke="#2F243A" stroke-miterlimit="10" stroke-linecap="round" stroke-linejoin="round"/>
<path d="M259.043 376.469C259.043 376.469 256.885 376.243 256.035 375.675C255.183 375.107 252.723 373.215 252.723 373.215L257.548 381.542L258.389 380.52L259.043 376.469Z" fill="#2F243A" stroke="#2F243A" stroke-miterlimit="10" stroke-linecap="round" stroke-linejoin="round"/>
<path d="M247.898 362.617C247.898 362.617 246.101 357.224 244.018 360.252C241.937 363.28 245.249 367.538 246.858 367.443" fill="white"/>
<path d="M247.898 362.617C247.898 362.617 246.101 357.224 244.018 360.252C241.937 363.28 245.249 367.538 246.858 367.443" stroke="#2F243A" stroke-miterlimit="10"/>
<path d="M256.558 363.469C257.002 363.469 257.362 362.96 257.362 362.333C257.362 361.706 257.002 361.197 256.558 361.197C256.114 361.197 255.754 361.706 255.754 362.333C255.754 362.96 256.114 363.469 256.558 363.469Z" fill="#2F243A"/>
<path d="M263.652 363.469C264.096 363.469 264.456 362.96 264.456 362.333C264.456 361.706 264.096 361.197 263.652 361.197C263.208 361.197 262.848 361.706 262.848 362.333C262.848 362.96 263.208 363.469 263.652 363.469Z" fill="#2F243A"/>
<path d="M254.426 359.873C254.426 359.873 256.129 358.169 258.4 359.494" stroke="#2F243A" stroke-miterlimit="10" stroke-linecap="round" stroke-linejoin="round"/>
<path d="M262.09 359.305C262.09 359.305 264.645 358.264 265.212 360.251" stroke="#2F243A" stroke-miterlimit="10" stroke-linecap="round" stroke-linejoin="round"/>
<path d="M244.774 377.095L251.399 385.516L246.857 390.436L241.746 381.257L244.774 377.095Z" fill="white" stroke="#2F243A" stroke-miterlimit="10"/>
<path d="M251.399 385.517L252.379 388.361L250.074 387.219L251.399 385.517Z" fill="white" stroke="#2F243A" stroke-miterlimit="10"/>
<path d="M253.766 384.097L256.983 390.436L261.903 382.109L258.591 379.46L253.766 384.097Z" fill="white" stroke="#2F243A" stroke-miterlimit="10"/>
<path d="M253.764 384.097L252.379 388.36L254.71 386.084L253.764 384.097Z" fill="white" stroke="#2F243A" stroke-miterlimit="10"/>
<path d="M216.281 427.709C216.281 427.709 214.941 431.529 215.316 432.054C215.71 432.605 216.997 433.261 217.355 432.008C217.713 430.754 218.071 427.961 217.6 427.174C217.128 426.387 216.281 427.709 216.281 427.709Z" fill="white" stroke="#2F243A" stroke-miterlimit="10"/>
<path d="M218.406 428.89C218.406 428.89 217.066 432.709 217.441 433.235C217.835 433.786 219.122 434.442 219.48 433.188C219.838 431.935 220.196 429.141 219.724 428.354C219.253 427.568 218.406 428.89 218.406 428.89Z" fill="white" stroke="#2F243A" stroke-miterlimit="10"/>
<path d="M221.16 428.733C221.16 428.733 219.821 432.553 220.195 433.078C220.588 433.629 221.876 434.285 222.234 433.031C222.591 431.778 222.95 428.984 222.478 428.198C222.007 427.41 221.16 428.733 221.16 428.733Z" fill="white" stroke="#2F243A" stroke-miterlimit="10"/>
<path d="M223.353 429.415C223.353 429.415 222.336 432.655 222.621 433.102C222.919 433.569 223.897 434.126 224.169 433.063C224.441 431.999 224.713 429.629 224.354 428.962C223.995 428.293 223.353 429.415 223.353 429.415Z" fill="white" stroke="#2F243A" stroke-miterlimit="10"/>
<path d="M86.6604 421.898C86.6604 421.898 82.6367 421.13 82.2743 421.743C81.8953 422.386 81.7255 424.202 83.018 424.35C84.3106 424.497 87.0406 424.26 87.6132 423.456C88.1858 422.655 86.6604 421.898 86.6604 421.898Z" fill="white" stroke="#2F243A" stroke-miterlimit="10"/>
<path d="M86.2897 424.921C86.2897 424.921 82.2659 424.153 81.9036 424.768C81.5246 425.41 81.3535 427.227 82.6473 427.374C83.9398 427.521 86.6698 427.284 87.2424 426.481C87.8151 425.678 86.2897 424.921 86.2897 424.921Z" fill="white" stroke="#2F243A" stroke-miterlimit="10"/>
<path d="M87.3831 428.421C87.3831 428.421 83.3593 427.653 82.997 428.268C82.618 428.91 82.4481 430.727 83.7407 430.874C85.0332 431.021 87.7632 430.784 88.3359 429.981C88.9085 429.178 87.3831 428.421 87.3831 428.421Z" fill="white" stroke="#2F243A" stroke-miterlimit="10"/>
<path d="M87.5004 431.406C87.5004 431.406 84.1277 430.908 83.8093 431.386C83.4755 431.886 83.2914 433.281 84.3772 433.364C85.463 433.447 87.7677 433.206 88.2679 432.579C88.7692 431.951 87.5004 431.406 87.5004 431.406Z" fill="white" stroke="#2F243A" stroke-miterlimit="10"/>
<path d="M286.103 427.709C286.103 427.709 287.443 431.529 287.068 432.054C286.674 432.605 285.387 433.261 285.029 432.008C284.67 430.754 284.313 427.961 284.786 427.174C285.256 426.387 286.103 427.709 286.103 427.709Z" fill="white" stroke="#2F243A" stroke-miterlimit="10"/>
<path d="M283.978 428.89C283.978 428.89 285.318 432.709 284.942 433.235C284.549 433.786 283.261 434.442 282.904 433.188C282.546 431.935 282.187 429.141 282.66 428.354C283.131 427.568 283.978 428.89 283.978 428.89Z" fill="white" stroke="#2F243A" stroke-miterlimit="10"/>
<path d="M281.22 428.733C281.22 428.733 282.559 432.553 282.185 433.078C281.792 433.629 280.504 434.285 280.146 433.031C279.789 431.778 279.43 428.984 279.902 428.198C280.373 427.41 281.22 428.733 281.22 428.733Z" fill="white" stroke="#2F243A" stroke-miterlimit="10"/>
<path d="M279.029 429.415C279.029 429.415 280.046 432.655 279.761 433.102C279.461 433.569 278.485 434.126 278.213 433.063C277.941 431.999 277.669 429.629 278.027 428.962C278.386 428.293 279.029 429.415 279.029 429.415Z" fill="white" stroke="#2F243A" stroke-miterlimit="10"/>
<path d="M184.769 436.457L183.422 430.322" stroke="#2F243A" stroke-miterlimit="10"/>
<path d="M194.251 434.11L201.902 433.017L205.479 429.938C205.479 429.938 206.771 425.864 206.969 425.368C207.167 424.871 206.771 423.878 205.776 424.175C204.783 424.473 204.485 425.963 204.485 425.963C204.485 425.963 203.69 423.181 202.895 423.777C202.101 424.374 202.001 425.168 202.001 425.168C202.001 425.168 200.709 423.579 200.113 424.075C199.517 424.572 199.318 426.063 199.318 426.063C199.318 426.063 197.827 424.87 197.331 425.566C196.834 426.261 197.331 427.454 197.331 427.454L197.927 429.838L196.934 430.037L192.762 430.235" fill="white"/>
<path d="M194.251 434.11L201.902 433.017L205.479 429.938C205.479 429.938 206.771 425.864 206.969 425.368C207.167 424.871 206.771 423.878 205.776 424.175C204.783 424.473 204.485 425.963 204.485 425.963C204.485 425.963 203.69 423.181 202.895 423.777C202.101 424.374 202.001 425.168 202.001 425.168C202.001 425.168 200.709 423.579 200.113 424.075C199.517 424.572 199.318 426.063 199.318 426.063C199.318 426.063 197.827 424.87 197.331 425.566C196.834 426.261 197.331 427.454 197.331 427.454L197.927 429.838L196.934 430.037L192.762 430.235" stroke="#2F243A" stroke-miterlimit="10"/>
<path d="M202.001 425.168C202.001 425.168 202.828 428.238 202.943 428.582C203.058 428.928 202.299 432.618 201.902 433.017" stroke="#2F243A" stroke-miterlimit="10"/>
<path d="M204.484 425.963C204.484 425.963 205.417 428.928 204.956 430.136" stroke="#2F243A" stroke-miterlimit="10"/>
<path d="M199.316 426.062L200.639 428.696C200.639 428.696 200.582 432.034 200.121 432.897" stroke="#2F243A" stroke-miterlimit="10"/>
<path d="M197.926 429.837L197.992 431.114" stroke="#2F243A" stroke-miterlimit="10"/>
<path d="M193.161 430.424C193.161 430.424 192.009 431.46 192.988 432.84" stroke="#2F243A" stroke-miterlimit="10"/>
</svg>
