<svg width="251" height="37" viewBox="0 0 251 37" fill="none" xmlns="http://www.w3.org/2000/svg">
<path d="M0.55 36V0.749998H14.35C20.35 0.749998 25 2.28333 28.3 5.35C31.6 8.38333 33.25 12.7167 33.25 18.35C33.25 23.9833 31.6 28.3333 28.3 31.4C25 34.4667 20.35 36 14.35 36H0.55ZM8.3 29.65H13.9C21.4 29.65 25.15 25.8833 25.15 18.35C25.15 10.85 21.4 7.1 13.9 7.1H8.3V29.65ZM46.9207 36.55C45.0874 36.55 43.4707 36.2 42.0707 35.5C40.6707 34.8 39.554 33.85 38.7207 32.65C37.9207 31.45 37.5207 30.1 37.5207 28.6C37.5207 26.8333 37.9874 25.4167 38.9207 24.35C39.854 23.2833 41.3707 22.5333 43.4707 22.1C45.5707 21.6333 48.354 21.4 51.8207 21.4H53.6207V20.55C53.6207 19.0833 53.2874 18.05 52.6207 17.45C51.954 16.8167 50.8207 16.5 49.2207 16.5C47.8874 16.5 46.4707 16.7167 44.9707 17.15C43.504 17.55 42.0374 18.1667 40.5707 19L38.5207 13.95C39.3874 13.3833 40.4374 12.8667 41.6707 12.4C42.9374 11.9333 44.254 11.5833 45.6207 11.35C46.9874 11.0833 48.2874 10.95 49.5207 10.95C53.3207 10.95 56.154 11.8167 58.0207 13.55C59.8874 15.25 60.8207 17.9 60.8207 21.5V36H53.7707V32.3C53.2707 33.6 52.4207 34.6333 51.2207 35.4C50.054 36.1667 48.6207 36.55 46.9207 36.55ZM48.6207 31.5C50.0207 31.5 51.204 31.0167 52.1707 30.05C53.1374 29.0833 53.6207 27.8333 53.6207 26.3V25.3H51.8707C49.304 25.3 47.4874 25.5333 46.4207 26C45.354 26.4333 44.8207 27.2 44.8207 28.3C44.8207 29.2333 45.1374 30 45.7707 30.6C46.4374 31.2 47.3874 31.5 48.6207 31.5ZM75.8527 36.55C73.6861 36.55 71.6694 36.3 69.8027 35.8C67.9361 35.3 66.3861 34.6167 65.1527 33.75L66.9527 28.85C68.1861 29.6167 69.5861 30.2333 71.1527 30.7C72.7527 31.1333 74.3361 31.35 75.9027 31.35C77.3027 31.35 78.3361 31.1333 79.0027 30.7C79.6694 30.2333 80.0027 29.6333 80.0027 28.9C80.0027 27.7333 79.1527 27 77.4527 26.7L72.2027 25.75C70.1027 25.3833 68.5027 24.6333 67.4027 23.5C66.3027 22.3667 65.7527 20.8833 65.7527 19.05C65.7527 17.3833 66.2194 15.95 67.1527 14.75C68.0861 13.55 69.3694 12.6167 71.0027 11.95C72.6361 11.2833 74.5194 10.95 76.6527 10.95C78.4194 10.95 80.1361 11.1833 81.8027 11.65C83.4694 12.0833 84.9027 12.7833 86.1027 13.75L84.2027 18.6C83.2027 17.8667 82.0027 17.2667 80.6027 16.8C79.2361 16.3333 77.9527 16.1 76.7527 16.1C75.2527 16.1 74.1694 16.35 73.5027 16.85C72.8361 17.3167 72.5027 17.9167 72.5027 18.65C72.5027 19.8167 73.2861 20.55 74.8527 20.85L80.1027 21.8C82.2694 22.1667 83.9194 22.9 85.0527 24C86.1861 25.0667 86.7527 26.5333 86.7527 28.4C86.7527 30.9667 85.7527 32.9667 83.7527 34.4C81.7527 35.8333 79.1194 36.55 75.8527 36.55ZM91.0621 36V0.749998H98.6121V14.8C99.4788 13.5333 100.595 12.5833 101.962 11.95C103.329 11.2833 104.845 10.95 106.512 10.95C112.279 10.95 115.162 14.3833 115.162 21.25V36H107.612V21.6C107.612 19.9 107.295 18.6833 106.662 17.95C106.029 17.1833 105.095 16.8 103.862 16.8C102.262 16.8 100.979 17.3 100.012 18.3C99.0788 19.3 98.6121 20.6333 98.6121 22.3V36H91.0621Z" fill="url(#paint0_linear_1469_124899)"/>
<path d="M134.048 36.55C131.282 36.55 128.665 36.2 126.198 35.5C123.765 34.8 121.732 33.85 120.098 32.65L122.348 26.55C123.915 27.65 125.698 28.5167 127.698 29.15C129.732 29.7833 131.848 30.1 134.048 30.1C136.448 30.1 138.165 29.7333 139.198 29C140.265 28.2333 140.798 27.2833 140.798 26.15C140.798 25.1833 140.432 24.4167 139.698 23.85C138.965 23.2833 137.682 22.8 135.848 22.4L130.198 21.2C123.898 19.8667 120.748 16.6 120.748 11.4C120.748 9.16667 121.348 7.21667 122.548 5.55C123.748 3.85 125.415 2.53333 127.548 1.6C129.715 0.666666 132.215 0.199999 135.048 0.199999C137.482 0.199999 139.765 0.549998 141.898 1.25C144.032 1.95 145.798 2.93333 147.198 4.2L144.948 9.9C142.215 7.73333 138.898 6.65 134.998 6.65C132.898 6.65 131.265 7.06667 130.098 7.9C128.965 8.7 128.398 9.75 128.398 11.05C128.398 12.0167 128.748 12.8 129.448 13.4C130.148 14 131.365 14.4833 133.098 14.85L138.748 16.05C145.215 17.45 148.448 20.6167 148.448 25.55C148.448 27.75 147.848 29.6833 146.648 31.35C145.482 32.9833 143.815 34.2667 141.648 35.2C139.515 36.1 136.982 36.55 134.048 36.55ZM164.538 36.55C157.638 36.55 154.188 33.2 154.188 26.5V17.1H149.538V11.45H154.188V4.25H161.738V11.45H168.988V17.1H161.738V26.2C161.738 27.6 162.055 28.65 162.688 29.35C163.355 30.05 164.405 30.4 165.838 30.4C166.271 30.4 166.721 30.35 167.188 30.25C167.688 30.15 168.221 30.0167 168.788 29.85L169.888 35.35C169.188 35.7167 168.355 36 167.388 36.2C166.421 36.4333 165.471 36.55 164.538 36.55ZM181.003 36.55C179.169 36.55 177.553 36.2 176.153 35.5C174.753 34.8 173.636 33.85 172.803 32.65C172.003 31.45 171.603 30.1 171.603 28.6C171.603 26.8333 172.069 25.4167 173.003 24.35C173.936 23.2833 175.453 22.5333 177.553 22.1C179.653 21.6333 182.436 21.4 185.903 21.4H187.703V20.55C187.703 19.0833 187.369 18.05 186.703 17.45C186.036 16.8167 184.903 16.5 183.303 16.5C181.969 16.5 180.553 16.7167 179.053 17.15C177.586 17.55 176.119 18.1667 174.653 19L172.603 13.95C173.469 13.3833 174.519 12.8667 175.753 12.4C177.019 11.9333 178.336 11.5833 179.703 11.35C181.069 11.0833 182.369 10.95 183.603 10.95C187.403 10.95 190.236 11.8167 192.103 13.55C193.969 15.25 194.903 17.9 194.903 21.5V36H187.853V32.3C187.353 33.6 186.503 34.6333 185.303 35.4C184.136 36.1667 182.703 36.55 181.003 36.55ZM182.703 31.5C184.103 31.5 185.286 31.0167 186.253 30.05C187.219 29.0833 187.703 27.8333 187.703 26.3V25.3H185.953C183.386 25.3 181.569 25.5333 180.503 26C179.436 26.4333 178.903 27.2 178.903 28.3C178.903 29.2333 179.219 30 179.853 30.6C180.519 31.2 181.469 31.5 182.703 31.5ZM212.485 36.55C209.818 36.55 207.485 36.0333 205.485 35C203.518 33.9333 202.001 32.4333 200.935 30.5C199.868 28.5667 199.335 26.2833 199.335 23.65C199.335 21.0167 199.868 18.75 200.935 16.85C202.001 14.95 203.518 13.5 205.485 12.5C207.485 11.4667 209.818 10.95 212.485 10.95C214.051 10.95 215.635 11.1833 217.235 11.65C218.835 12.1167 220.135 12.7833 221.135 13.65L219.035 18.85C218.201 18.1833 217.268 17.6667 216.235 17.3C215.201 16.9 214.201 16.7 213.235 16.7C211.268 16.7 209.735 17.3167 208.635 18.55C207.568 19.75 207.035 21.4667 207.035 23.7C207.035 25.9 207.568 27.6333 208.635 28.9C209.735 30.1333 211.268 30.75 213.235 30.75C214.168 30.75 215.151 30.5667 216.185 30.2C217.251 29.8333 218.201 29.3 219.035 28.6L221.135 33.8C220.135 34.6667 218.835 35.35 217.235 35.85C215.635 36.3167 214.051 36.55 212.485 36.55ZM224.412 36V0.749998H231.962V21.6H232.062L241.112 11.45H250.062L239.662 23.2L250.562 36H241.462L232.062 25.4H231.962V36H224.412Z" fill="#202224"/>
<defs>
<linearGradient id="paint0_linear_1469_124899" x1="-3" y1="20" x2="250" y2="20" gradientUnits="userSpaceOnUse">
<stop stop-color="#FE512E"/>
<stop offset="1" stop-color="#F09619"/>
</linearGradient>
</defs>
</svg>
