<svg width="18" height="17" viewBox="0 0 18 17" fill="none" xmlns="http://www.w3.org/2000/svg">
<path d="M12.493 0.166992H5.50964C2.4763 0.166992 0.667969 1.97533 0.667969 5.00866V11.9837C0.667969 15.0253 2.4763 16.8337 5.50964 16.8337H12.4846C15.518 16.8337 17.3263 15.0253 17.3263 11.992V5.00866C17.3346 1.97533 15.5263 0.166992 12.493 0.166992ZM12.3346 9.12532H9.6263V11.8337C9.6263 12.1753 9.34297 12.4587 9.0013 12.4587C8.65964 12.4587 8.3763 12.1753 8.3763 11.8337V9.12532H5.66797C5.3263 9.12532 5.04297 8.84199 5.04297 8.50032C5.04297 8.15866 5.3263 7.87532 5.66797 7.87532H8.3763V5.16699C8.3763 4.82532 8.65964 4.54199 9.0013 4.54199C9.34297 4.54199 9.6263 4.82532 9.6263 5.16699V7.87532H12.3346C12.6763 7.87532 12.9596 8.15866 12.9596 8.50032C12.9596 8.84199 12.6763 9.12532 12.3346 9.12532Z" fill="white"/>
</svg>
