<svg width="32" height="32" viewBox="0 0 32 32" fill="none" xmlns="http://www.w3.org/2000/svg">
<path d="M21.588 2.66699H10.4146C5.5613 2.66699 2.66797 5.56033 2.66797 10.4137V21.5737C2.66797 26.4403 5.5613 29.3337 10.4146 29.3337H21.5746C26.428 29.3337 29.3213 26.4403 29.3213 21.587V10.4137C29.3346 5.56033 26.4413 2.66699 21.588 2.66699ZM21.0013 21.0003H11.0013C10.4546 21.0003 10.0013 20.547 10.0013 20.0003C10.0013 19.4537 10.4546 19.0003 11.0013 19.0003H21.0013C21.548 19.0003 22.0013 19.4537 22.0013 20.0003C22.0013 20.547 21.548 21.0003 21.0013 21.0003ZM21.0013 13.0003H11.0013C10.4546 13.0003 10.0013 12.547 10.0013 12.0003C10.0013 11.4537 10.4546 11.0003 11.0013 11.0003H21.0013C21.548 11.0003 22.0013 11.4537 22.0013 12.0003C22.0013 12.547 21.548 13.0003 21.0013 13.0003Z" fill="#FF6A00"/>
</svg>
