<svg width="20" height="21" viewBox="0 0 20 21" fill="none" xmlns="http://www.w3.org/2000/svg">
<path d="M14.19 0.5H5.81C2.17 0.5 0 2.67 0 6.31V14.68C0 18.33 2.17 20.5 5.81 20.5H14.18C17.82 20.5 19.99 18.33 19.99 14.69V6.31C20 2.67 17.83 0.5 14.19 0.5ZM8.95 16.01C8.66 16.3 8.11 16.58 7.71 16.64L5.25 16.99C5.16 17 5.07 17.01 4.98 17.01C4.57 17.01 4.19 16.87 3.92 16.6C3.59 16.27 3.45 15.79 3.53 15.26L3.88 12.8C3.94 12.39 4.21 11.85 4.51 11.56L8.97 7.1C9.05 7.31 9.13 7.52 9.24 7.76C9.34 7.97 9.45 8.19 9.57 8.39C9.67 8.56 9.78 8.72 9.87 8.84C9.98 9.01 10.11 9.17 10.19 9.26C10.24 9.33 10.28 9.38 10.3 9.4C10.55 9.7 10.84 9.98 11.09 10.19C11.16 10.26 11.2 10.3 11.22 10.31C11.37 10.43 11.52 10.55 11.65 10.64C11.81 10.76 11.97 10.87 12.14 10.96C12.34 11.08 12.56 11.19 12.78 11.3C13.01 11.4 13.22 11.49 13.43 11.56L8.95 16.01ZM15.37 9.59L14.45 10.52C14.39 10.58 14.31 10.61 14.23 10.61C14.2 10.61 14.16 10.61 14.14 10.6C12.11 10.02 10.49 8.4 9.91 6.37C9.88 6.26 9.91 6.14 9.99 6.07L10.92 5.14C12.44 3.62 13.89 3.65 15.38 5.14C16.14 5.9 16.51 6.63 16.51 7.39C16.5 8.11 16.13 8.83 15.37 9.59Z" fill="#39973D"/>
</svg>
