<svg width="32" height="32" viewBox="0 0 32 32" fill="none" xmlns="http://www.w3.org/2000/svg">
<path d="M25.0781 8.33331H26.8915C26.6381 7.97331 26.3715 7.63997 26.0915 7.30664L25.0781 8.33331Z" fill="#39973D"/>
<path d="M24.6946 5.89375C24.3613 5.61375 24.028 5.34708 23.668 5.09375V6.90708L24.6946 5.89375Z" fill="#39973D"/>
<path d="M26.1047 7.30659L30.0381 3.37326C30.4247 2.98659 30.4247 2.34659 30.0381 1.95992C29.6514 1.57326 29.0114 1.57326 28.6247 1.95992L24.6914 5.89326C25.1981 6.33326 25.6647 6.81326 26.1047 7.30659Z" fill="#39973D"/>
<path d="M23.6664 4C23.6664 3.45333 23.213 3 22.6664 3C22.133 3 21.7064 3.42667 21.6797 3.94667C22.373 4.28 23.0397 4.65333 23.6664 5.09333V4Z" fill="#39973D"/>
<path d="M29.0012 9.33301C29.0012 8.78634 28.5479 8.33301 28.0012 8.33301H26.8945C27.3345 8.95967 27.7212 9.62634 28.0412 10.3197C28.5745 10.293 29.0012 9.86634 29.0012 9.33301Z" fill="#39973D"/>
<path d="M17 19.6671H17.4C17.92 19.6671 18.3333 19.2004 18.3333 18.6271C18.3333 17.9071 18.1333 17.8004 17.68 17.6404L17 17.4004V19.6671Z" fill="#39973D"/>
<path d="M28.0546 10.3203C28.0413 10.3203 28.028 10.3337 28.0013 10.3337H22.668C22.5346 10.3337 22.4146 10.307 22.2813 10.2537C22.0413 10.147 21.8413 9.96033 21.7346 9.70699C21.6946 9.58699 21.668 9.46699 21.668 9.33366V4.00033C21.668 3.98699 21.6813 3.97366 21.6813 3.94699C19.948 3.13366 18.028 2.66699 16.0013 2.66699C8.6413 2.66699 2.66797 8.64033 2.66797 16.0003C2.66797 23.3603 8.6413 29.3337 16.0013 29.3337C23.3613 29.3337 29.3346 23.3603 29.3346 16.0003C29.3346 13.9737 28.868 12.0537 28.0546 10.3203ZM18.3346 15.7603C19.188 16.0537 20.3346 16.6803 20.3346 18.6403C20.3346 20.307 19.0146 21.6803 17.4013 21.6803H17.0013V22.0137C17.0013 22.5603 16.548 23.0137 16.0013 23.0137C15.4546 23.0137 15.0013 22.5603 15.0013 22.0137V21.6803H14.8946C13.1213 21.6803 11.668 20.187 11.668 18.347C11.668 17.787 12.1213 17.3337 12.668 17.3337C13.2146 17.3337 13.668 17.787 13.668 18.3337C13.668 19.067 14.2146 19.667 14.8946 19.667H15.0013V16.707L13.668 16.2403C12.8146 15.947 11.668 15.3203 11.668 13.3603C11.668 11.6937 12.988 10.3203 14.6013 10.3203H15.0013V10.0003C15.0013 9.45366 15.4546 9.00033 16.0013 9.00033C16.548 9.00033 17.0013 9.45366 17.0013 10.0003V10.3337H17.108C18.8813 10.3337 20.3346 11.827 20.3346 13.667C20.3346 14.2137 19.8813 14.667 19.3346 14.667C18.788 14.667 18.3346 14.2137 18.3346 13.667C18.3346 12.9337 17.788 12.3337 17.108 12.3337H17.0013V15.2937L18.3346 15.7603Z" fill="#39973D"/>
<path d="M13.668 13.373C13.668 14.093 13.868 14.1997 14.3213 14.3597L15.0013 14.5997V12.333H14.6013C14.0946 12.333 13.668 12.7997 13.668 13.373Z" fill="#39973D"/>
</svg>
