<svg width="17" height="17" viewBox="0 0 17 17" fill="none" xmlns="http://www.w3.org/2000/svg">
<path d="M12.5 1.83398H4.5C3.39333 1.83398 2.5 2.72065 2.5 3.81398V11.0873C2.5 12.1807 3.39333 13.074 4.5 13.074H5.00667C5.53333 13.074 6.04667 13.2807 6.42 13.654L7.56 14.7807C8.08 15.294 8.92 15.294 9.44 14.7807L10.58 13.654C10.9533 13.2807 11.4667 13.074 11.9933 13.074H12.5C13.6067 13.074 14.5 12.1807 14.5 11.0873V3.81398C14.5 2.72065 13.6067 1.83398 12.5 1.83398ZM8.5 4.20065C9.22 4.20065 9.8 4.78732 9.8 5.50065C9.8 6.20732 9.24 6.77398 8.54667 6.80065C8.52 6.80065 8.48 6.80065 8.44667 6.80065C7.74667 6.77398 7.19333 6.20732 7.19333 5.50065C7.2 4.78732 7.78 4.20065 8.5 4.20065ZM10.3333 10.294C9.32667 10.9673 7.67333 10.9673 6.66667 10.294C5.78 9.70732 5.78 8.73398 6.66667 8.14065C7.68 7.46732 9.33333 7.46732 10.3333 8.14065C11.22 8.73398 11.22 9.70065 10.3333 10.294Z" fill="#4F46E5"/>
</svg>
